mtllib Motorway_2x2_Ramp.mtl

#
# object Motorway_Asphalt_Primary
#

#
# object Motorway_Concrete_Ramp_2x2
#

v  6.7543 0.0100 -20.7544
v  6.7818 0.0100 -20.0735
v  8.0035 0.0100 -20.7544
v  8.0272 0.0100 -20.1207
v  6.8131 0.0100 -19.3046
v  8.0541 0.0100 -19.4194
v  6.9272 0.0100 -18.5262
v  8.1547 0.0100 -18.7423
v  7.0611 0.0100 -17.8770
v  8.2790 0.0100 -18.1420
v  7.2242 0.0100 -17.1573
v  8.4375 0.0100 -17.4425
v  7.4138 0.0100 -16.3768
v  8.6225 0.0100 -16.6804
v  7.6231 0.0100 -15.5692
v  8.8268 0.0100 -15.8922
v  7.8445 0.0100 -14.7719
v  9.0427 0.0100 -15.1146
v  8.0347 0.0100 -14.1820
v  9.2234 0.0100 -14.5566
v  7.0334 0.0100 -14.5566
v  8.2868 0.0100 -13.4391
v  9.4649 0.0100 -13.8458
v  8.5520 0.0100 -12.7102
v  9.7202 0.0100 -13.1443
v  8.7990 0.0100 -11.9999
v  9.9624 0.0100 -12.4470
v  9.0363 0.0100 -11.3027
v  10.2002 0.0100 -11.7486
v  9.2593 0.0100 -10.6096
v  10.4276 0.0100 -11.0436
v  9.4192 0.0100 -10.1223
v  10.5996 0.0100 -10.5224
v  7.0334 0.0100 -10.5224
v  10.5309 0.0100 -5.9268
v  11.7178 0.0100 -6.3071
v  7.0334 0.0100 -6.3071
v  10.6719 0.0100 -5.2991
v  11.8904 0.0100 -5.5603
v  10.8104 0.0100 -4.5961
v  12.0369 0.0100 -4.8182
v  10.9261 0.0100 -3.8946
v  12.1586 0.0100 -4.0792
v  11.0208 0.0100 -3.1922
v  12.2581 0.0100 -3.3415
v  11.0966 0.0100 -2.4800
v  12.3367 0.0100 -2.6032
v  11.1260 0.0100 -2.1708
v  12.3721 0.0100 -2.1937
v  7.0334 0.0100 -2.1937
v  11.1292 0.0100 -0.5044
v  12.3754 0.0100 -0.5044
v  7.0334 0.0100 -0.5044
v  11.1959 0.0100 1.8687
v  12.4417 0.0100 1.8346
v  7.1017 0.0100 1.9914
v  11.5969 0.0100 5.7576
v  12.8370 0.0100 5.6335
v  7.5234 0.0100 6.2042
v  12.3419 0.0100 9.5582
v  13.5659 0.0100 9.3241
v  8.3259 0.0100 10.4004
v  13.4183 0.0100 13.3207
v  14.6179 0.0100 12.9829
v  9.4903 0.0100 14.5358
v  14.8486 0.0100 16.9910
v  15.9678 0.0100 16.5778
v  10.9431 0.0100 18.5805
v  15.0694 0.0100 17.5597
v  16.1708 0.0100 17.1189
v  11.1461 0.0100 19.1306
v  6.7543 0.0100 -18.7422
v  6.7543 0.0100 -10.5224
v  6.7543 0.0100 -6.3071
v  6.7543 0.0100 -2.1937
v  6.7543 0.0100 -0.5044
v  7.0334 0.0100 1.9914
v  7.0334 0.0100 6.2042
v  7.0334 0.0100 10.4004
v  7.0334 0.0100 14.5359
v  7.0334 0.0100 18.5664
v  7.0334 0.0100 19.2956
v  8.0035 0.0100 19.2956
v  10.2863 0.0100 19.4741
v  7.0334 0.0100 -18.0116
v  6.7543 0.0100 -14.5566
v  -6.7736 0.0100 -20.0735
v  -6.7468 0.0100 -20.7544
v  -7.9959 0.0100 -20.7544
v  -8.0190 0.0100 -20.1207
v  -6.8049 0.0100 -19.3046
v  -8.0459 0.0100 -19.4194
v  -6.9190 0.0100 -18.5262
v  -8.1465 0.0100 -18.7423
v  -7.0529 0.0100 -17.8770
v  -8.2708 0.0100 -18.1420
v  -7.2160 0.0100 -17.1573
v  -8.4293 0.0100 -17.4425
v  -7.4056 0.0100 -16.3768
v  -8.6143 0.0100 -16.6804
v  -7.6149 0.0100 -15.5692
v  -8.8186 0.0100 -15.8922
v  -7.8363 0.0100 -14.7719
v  -9.0345 0.0100 -15.1146
v  -8.0266 0.0100 -14.1821
v  -9.2153 0.0100 -14.5566
v  -7.0252 0.0100 -14.5566
v  -8.2786 0.0100 -13.4391
v  -9.4567 0.0100 -13.8458
v  -8.5438 0.0100 -12.7102
v  -9.7121 0.0100 -13.1443
v  -8.7908 0.0100 -11.9999
v  -9.9542 0.0100 -12.4470
v  -9.0282 0.0100 -11.3027
v  -10.1920 0.0100 -11.7486
v  -9.2511 0.0100 -10.6096
v  -10.4194 0.0100 -11.0436
v  -9.4110 0.0100 -10.1223
v  -10.5914 0.0100 -10.5224
v  -7.0253 0.0100 -10.5224
v  -10.5228 0.0100 -5.9268
v  -11.7096 0.0100 -6.3071
v  -7.0252 0.0100 -6.3071
v  -10.6637 0.0100 -5.2991
v  -11.8823 0.0100 -5.5603
v  -10.8022 0.0100 -4.5962
v  -12.0287 0.0100 -4.8182
v  -10.9180 0.0100 -3.8946
v  -12.1505 0.0100 -4.0792
v  -11.0126 0.0100 -3.1922
v  -12.2499 0.0100 -3.3415
v  -11.0884 0.0100 -2.4800
v  -12.3286 0.0100 -2.6032
v  -11.1179 0.0100 -2.1708
v  -12.3640 0.0100 -2.1937
v  -7.0252 0.0100 -2.1937
v  -11.1210 0.0100 -0.5044
v  -12.3672 0.0100 -0.5044
v  -7.0252 0.0100 -0.5044
v  -11.1877 0.0100 1.8687
v  -12.4335 0.0100 1.8346
v  -7.0935 0.0100 1.9914
v  -11.5887 0.0100 5.7576
v  -12.8289 0.0100 5.6335
v  -7.5152 0.0100 6.2042
v  -12.3337 0.0100 9.5582
v  -13.5577 0.0100 9.3241
v  -8.3177 0.0100 10.4004
v  -13.4101 0.0100 13.3207
v  -14.6097 0.0100 12.9830
v  -9.4821 0.0100 14.5358
v  -14.8404 0.0100 16.9911
v  -15.9596 0.0100 16.5778
v  -10.9349 0.0100 18.5805
v  -15.0612 0.0100 17.5597
v  -16.1627 0.0100 17.1189
v  -11.1379 0.0100 19.1306
v  -6.7468 0.0100 -18.7422
v  -6.7461 0.0100 -6.3071
v  -6.7462 0.0100 -10.5224
v  -6.7461 0.0100 -2.1937
v  -6.7461 0.0100 -0.5044
v  -7.0252 0.0100 1.9914
v  -7.0252 0.0100 6.2042
v  -7.0259 0.0100 10.4004
v  -7.0259 0.0100 14.5359
v  -7.0259 0.0100 18.5664
v  -7.9960 0.0100 19.2956
v  -7.0259 0.0100 19.2956
v  -10.2781 0.0100 19.4741
v  -7.0252 0.0100 -18.0117
v  -6.7461 0.0100 -14.5566
v  11.5043 0.0100 22.5706
v  17.3597 0.0100 20.2308
v  -11.4961 0.0100 22.5706
v  -17.3515 0.0100 20.2308
# 176 vertices

vn 0.0000 1.0000 -0.0000
vn 0.0000 1.0000 0.0000
vn -0.0000 1.0000 0.0000
vn -0.0000 1.0000 -0.0000
# 4 vertex normals

vt 0.8140 0.0000 0.0000
vt 0.8140 0.1016 0.0000
vt 1.0000 0.0000 0.0000
vt 1.0000 0.0946 0.0000
vt 0.8140 0.1990 0.0000
vt 1.0000 0.1993 0.0000
vt 0.8140 0.3000 0.0000
vt 1.0000 0.3003 0.0000
vt 0.8140 0.3900 0.0000
vt 1.0000 0.3899 0.0000
vt 0.8140 0.4940 0.0000
vt 1.0000 0.4943 0.0000
vt 0.8140 0.6080 0.0000
vt 1.0000 0.6081 0.0000
vt 0.8140 0.7260 0.0000
vt 1.0000 0.7257 0.0000
vt 0.8140 0.8420 0.0000
vt 1.0000 0.8418 0.0000
vt 0.8140 0.9250 0.0000
vt 1.0000 0.9250 0.0000
vt 0.6690 0.9534 0.0000
vt 0.8140 1.0310 0.0000
vt 1.0000 1.0311 0.0000
vt 0.8140 1.1360 0.0000
vt 1.0000 1.1358 0.0000
vt 0.8140 1.2400 0.0000
vt 1.0000 1.2399 0.0000
vt 0.8140 1.3440 0.0000
vt 1.0000 1.3442 0.0000
vt 0.8140 1.4490 0.0000
vt 1.0000 1.4494 0.0000
vt 0.8140 1.5270 0.0000
vt 1.0000 1.5272 0.0000
vt 0.4376 1.4894 0.0000
vt 0.8140 2.1560 0.0000
vt 1.0000 2.1563 0.0000
vt 0.2626 2.1560 0.0000
vt 0.8140 2.2680 0.0000
vt 1.0000 2.2678 0.0000
vt 0.8140 2.3790 0.0000
vt 1.0000 2.3785 0.0000
vt 0.8140 2.4890 0.0000
vt 1.0000 2.4888 0.0000
vt 0.8140 2.5990 0.0000
vt 1.0000 2.5989 0.0000
vt 0.8140 2.7090 0.0000
vt 1.0000 2.7091 0.0000
vt 0.8140 2.7846 0.0000
vt 1.0000 2.7842 0.0000
vt 0.2012 2.7700 0.0000
vt 0.8140 3.0850 0.0000
vt 1.0000 3.0847 0.0000
vt 0.1873 3.0705 0.0000
vt 0.8140 3.4950 0.0000
vt 1.0000 3.4950 0.0000
vt 0.1448 3.4950 0.0000
vt 0.8140 4.1400 0.0000
vt 1.0000 4.1396 0.0000
vt 0.1448 4.1396 0.0000
vt 0.8140 4.7720 0.0000
vt 1.0000 4.7716 0.0000
vt 0.1448 4.7716 0.0000
vt 0.8140 5.3790 0.0000
vt 1.0000 5.3790 0.0000
vt 0.1448 5.3790 0.0000
vt 0.8140 5.9719 0.0000
vt 1.0000 5.9787 0.0000
vt 0.1448 5.9787 0.0000
vt 0.8140 6.0650 0.0000
vt 1.0000 6.0650 0.0000
vt 0.1448 6.0650 0.0000
vt 0.7458 1.9711 0.0000
vt 0.7458 1.7038 0.0000
vt 0.7494 1.8806 0.0000
vt 0.7536 1.7785 0.0000
vt 0.7458 0.6118 0.0000
vt 0.7458 0.0519 0.0000
vt 0.7829 0.0519 0.0000
vt 0.7458 -0.4945 0.0000
vt 0.7829 -0.4945 0.0000
vt 0.7458 -0.7189 0.0000
vt 0.7829 -0.7189 0.0000
vt 0.2793 1.7253 0.0000
vt 0.2877 1.7252 0.0000
vt 0.2844 2.0299 0.0000
vt 0.2708 1.2112 0.0000
vt 0.3306 1.2102 0.0000
vt 0.2622 0.6990 0.0000
vt 0.4200 0.6964 0.0000
vt 0.2538 0.1943 0.0000
vt 0.5537 0.1893 0.0000
vt 0.2456 -0.2976 0.0000
vt 0.7275 -0.3056 0.0000
vt 0.2442 -0.3866 0.0000
vt 0.3625 -0.3886 0.0000
vt 0.6408 -0.4150 0.0000
vt 0.7523 -0.3752 0.0000
vt 0.7687 1.6751 0.0000
vt 0.7829 1.6067 0.0000
vt 0.7458 1.1477 0.0000
vt 0.7829 1.1477 0.0000
vt 0.8140 0.4295 0.0000
vt 0.8145 0.4089 0.0000
vt 0.7829 0.6118 0.0000
vt -0.0007 6.5083 0.0000
vt -0.0007 6.0660 0.0000
vt 0.9993 6.5083 0.0000
vt 0.9993 6.0660 0.0000
# 108 texture coords

g Motorway_Concrete_Ramp_2x2
usemtl Material__135
s 1
f 1/1/1 2/2/1 3/3/1 
f 3/3/1 2/2/1 4/4/1 
f 2/2/1 5/5/1 4/4/1 
f 4/4/1 5/5/1 6/6/1 
f 5/5/1 7/7/1 6/6/1 
f 6/6/1 7/7/1 8/8/1 
f 7/7/1 9/9/1 8/8/1 
f 8/8/1 9/9/1 10/10/1 
f 9/9/1 11/11/1 10/10/1 
f 10/10/1 11/11/1 12/12/1 
f 11/11/1 13/13/1 12/12/1 
f 12/12/1 13/13/1 14/14/1 
f 13/13/1 15/15/1 14/14/1 
f 14/14/1 15/15/1 16/16/1 
f 15/15/1 17/17/1 16/16/1 
f 16/16/1 17/17/1 18/18/1 
f 17/17/1 19/19/1 18/18/1 
f 18/18/1 19/19/1 20/20/1 
f 21/21/1 15/15/1 13/13/1 
f 21/21/1 17/17/1 15/15/1 
f 21/21/1 19/19/1 17/17/1 
f 19/19/1 22/22/1 20/20/1 
f 20/20/1 22/22/1 23/23/1 
f 22/22/1 24/24/1 23/23/1 
f 23/23/1 24/24/1 25/25/1 
f 24/24/1 26/26/1 25/25/1 
f 25/25/1 26/26/1 27/27/1 
f 26/26/1 28/28/1 27/27/1 
f 27/27/1 28/28/1 29/29/1 
f 28/28/1 30/30/1 29/29/1 
f 29/29/1 30/30/1 31/31/1 
f 30/30/1 32/32/1 31/31/1 
f 31/31/1 32/32/1 33/33/1 
f 21/21/1 22/22/1 19/19/1 
f 21/21/1 24/24/1 22/22/1 
f 21/21/1 34/34/1 24/24/1 
f 34/34/1 26/26/1 24/24/1 
f 34/34/1 28/28/1 26/26/1 
f 34/34/1 30/30/1 28/28/1 
f 34/34/1 32/32/1 30/30/1 
f 32/32/1 35/35/1 33/33/1 
f 33/33/1 35/35/1 36/36/1 
f 34/34/1 37/37/1 32/32/1 
f 37/37/1 35/35/1 32/32/1 
f 35/35/1 38/38/1 36/36/1 
f 36/36/1 38/38/1 39/39/1 
f 38/38/1 40/40/1 39/39/1 
f 39/39/1 40/40/1 41/41/1 
f 40/40/1 42/42/1 41/41/1 
f 41/41/1 42/42/1 43/43/1 
f 42/42/1 44/44/1 43/43/1 
f 43/43/1 44/44/1 45/45/1 
f 44/44/1 46/46/1 45/45/1 
f 45/45/1 46/46/1 47/47/1 
f 46/46/1 48/48/1 47/47/1 
f 47/47/1 48/48/1 49/49/1 
f 37/37/1 38/38/1 35/35/1 
f 37/37/1 40/40/1 38/38/1 
f 37/37/1 50/50/1 40/40/1 
f 50/50/1 42/42/1 40/40/1 
f 50/50/1 44/44/1 42/42/1 
f 50/50/1 46/46/1 44/44/1 
f 50/50/1 48/48/1 46/46/1 
f 48/48/1 51/51/1 49/49/1 
f 49/49/1 51/51/1 52/52/1 
f 50/50/1 53/53/1 48/48/1 
f 53/53/1 51/51/1 48/48/1 
f 51/51/1 54/54/1 52/52/1 
f 52/52/1 54/54/1 55/55/1 
f 53/53/1 56/56/1 51/51/1 
f 56/56/1 54/54/1 51/51/1 
f 54/54/1 57/57/1 55/55/1 
f 55/55/1 57/57/1 58/58/1 
f 56/56/1 59/59/1 54/54/1 
f 59/59/1 57/57/1 54/54/1 
f 57/57/1 60/60/1 58/58/1 
f 58/58/1 60/60/1 61/61/1 
f 59/59/1 62/62/1 57/57/1 
f 62/62/1 60/60/1 57/57/1 
f 60/60/1 63/63/1 61/61/1 
f 61/61/1 63/63/1 64/64/1 
f 62/62/1 65/65/1 60/60/1 
f 65/65/1 63/63/1 60/60/1 
f 63/63/1 66/66/2 64/64/1 
f 64/64/1 66/66/2 67/67/2 
f 65/65/1 68/68/2 63/63/1 
f 68/68/2 66/66/2 63/63/1 
f 66/66/2 69/69/2 67/67/2 
f 67/67/2 69/69/2 70/70/2 
f 68/68/2 71/71/2 66/66/2 
f 71/71/2 69/69/2 66/66/2 
f 1/72/1 72/73/1 2/74/1 
f 72/73/1 5/75/1 2/74/1 
f 73/76/1 74/77/1 37/78/1 
f 74/77/1 75/79/1 37/78/1 
f 37/78/1 75/79/1 50/80/1 
f 75/79/1 76/81/1 50/80/1 
f 50/80/1 76/81/1 53/82/1 
f 77/83/1 56/84/1 53/85/1 
f 78/86/1 56/84/1 77/83/1 
f 78/86/1 59/87/1 56/84/1 
f 79/88/1 59/87/1 78/86/1 
f 79/88/1 62/89/1 59/87/1 
f 80/90/1 62/89/1 79/88/1 
f 80/90/1 65/91/1 62/89/1 
f 81/92/1 65/91/1 80/90/1 
f 81/92/1 68/93/2 65/91/1 
f 82/94/1 83/95/2 81/92/1 
f 83/95/2 68/93/2 81/92/1 
f 84/96/2 71/97/2 68/93/2 
f 83/95/2 84/96/2 68/93/2 
f 7/98/1 5/75/1 72/73/1 
f 85/99/1 7/98/1 72/73/1 
f 86/100/1 85/99/1 72/73/1 
f 21/101/1 85/99/1 86/100/1 
s off
f 21/21/1 9/102/1 85/103/1 
f 21/21/1 13/13/1 11/11/1 
f 21/21/1 11/11/1 9/9/1 
s 1
f 73/76/1 34/104/1 86/100/1 
f 34/104/1 21/101/1 86/100/1 
f 37/78/1 34/104/1 73/76/1 
f 87/2/1 88/1/1 89/3/1 
f 87/2/1 89/3/1 90/4/1 
f 91/5/1 87/2/1 90/4/1 
f 91/5/1 90/4/1 92/6/1 
f 93/7/1 91/5/1 92/6/1 
f 93/7/1 92/6/1 94/8/1 
f 95/9/1 93/7/1 94/8/1 
f 95/9/1 94/8/1 96/10/1 
f 97/11/1 95/9/1 96/10/1 
f 97/11/1 96/10/1 98/12/1 
f 99/13/1 97/11/1 98/12/1 
f 99/13/1 98/12/1 100/14/1 
f 101/15/1 99/13/1 100/14/1 
f 101/15/1 100/14/1 102/16/1 
f 103/17/1 101/15/1 102/16/1 
f 103/17/1 102/16/1 104/18/1 
f 105/19/1 103/17/1 104/18/1 
f 105/19/1 104/18/1 106/20/1 
f 101/15/1 107/21/1 99/13/1 
f 103/17/1 107/21/1 101/15/1 
f 105/19/1 107/21/1 103/17/1 
f 108/22/1 105/19/1 106/20/1 
f 108/22/1 106/20/1 109/23/1 
f 110/24/1 108/22/1 109/23/1 
f 110/24/1 109/23/1 111/25/1 
f 112/26/1 110/24/1 111/25/1 
f 112/26/1 111/25/1 113/27/1 
f 114/28/1 112/26/1 113/27/1 
f 114/28/1 113/27/1 115/29/1 
f 116/30/1 114/28/1 115/29/1 
f 116/30/1 115/29/1 117/31/1 
f 118/32/1 116/30/1 117/31/1 
f 118/32/1 117/31/1 119/33/1 
f 108/22/1 107/21/1 105/19/1 
f 110/24/1 107/21/1 108/22/1 
f 120/34/1 107/21/1 110/24/1 
f 112/26/1 120/34/1 110/24/1 
f 114/28/1 120/34/1 112/26/1 
f 116/30/1 120/34/1 114/28/1 
f 118/32/1 120/34/1 116/30/1 
f 121/35/1 118/32/1 119/33/1 
f 121/35/1 119/33/1 122/36/1 
f 123/37/1 120/34/1 118/32/1 
f 121/35/1 123/37/1 118/32/1 
f 124/38/1 121/35/1 122/36/1 
f 124/38/1 122/36/1 125/39/1 
f 126/40/1 124/38/1 125/39/1 
f 126/40/1 125/39/1 127/41/1 
f 128/42/1 126/40/1 127/41/1 
f 128/42/1 127/41/1 129/43/1 
f 130/44/1 128/42/1 129/43/1 
f 130/44/1 129/43/1 131/45/1 
f 132/46/1 130/44/1 131/45/1 
f 132/46/1 131/45/1 133/47/1 
f 134/48/1 132/46/1 133/47/1 
f 134/48/1 133/47/1 135/49/1 
f 124/38/1 123/37/1 121/35/1 
f 126/40/1 123/37/1 124/38/1 
f 136/50/1 123/37/1 126/40/1 
f 128/42/1 136/50/1 126/40/1 
f 130/44/1 136/50/1 128/42/1 
f 132/46/1 136/50/1 130/44/1 
f 134/48/1 136/50/1 132/46/1 
f 137/51/1 134/48/1 135/49/1 
f 137/51/1 135/49/1 138/52/1 
f 139/53/1 136/50/1 134/48/1 
f 137/51/1 139/53/1 134/48/1 
f 140/54/1 137/51/1 138/52/1 
f 140/54/1 138/52/1 141/55/1 
f 142/56/1 139/53/1 137/51/1 
f 140/54/1 142/56/1 137/51/1 
f 143/57/1 140/54/1 141/55/1 
f 143/57/1 141/55/1 144/58/1 
f 145/59/1 142/56/1 140/54/1 
f 143/57/1 145/59/1 140/54/1 
f 146/60/1 143/57/1 144/58/1 
f 146/60/1 144/58/1 147/61/1 
f 148/62/1 145/59/1 143/57/1 
f 146/60/1 148/62/1 143/57/1 
f 149/63/1 146/60/1 147/61/1 
f 149/63/1 147/61/1 150/64/1 
f 151/65/1 148/62/1 146/60/1 
f 149/63/1 151/65/1 146/60/1 
f 152/66/3 149/63/1 150/64/1 
f 152/66/3 150/64/1 153/67/3 
f 154/68/3 151/65/1 149/63/1 
f 152/66/3 154/68/3 149/63/1 
f 155/69/3 152/66/3 153/67/3 
f 155/69/3 153/67/3 156/70/3 
f 157/71/3 154/68/3 152/66/3 
f 155/69/3 157/71/3 152/66/3 
f 158/73/1 88/72/1 87/74/1 
f 91/75/1 158/73/1 87/74/1 
f 159/77/1 160/76/1 123/78/1 
f 161/79/1 159/77/1 123/78/1 
f 161/79/1 123/78/1 136/80/1 
f 162/81/1 161/79/1 136/80/1 
f 162/81/1 136/80/1 139/82/1 
f 142/84/1 163/83/1 139/85/1 
f 142/84/1 164/86/1 163/83/1 
f 145/87/1 164/86/1 142/84/1 
f 145/87/1 165/88/1 164/86/1 
f 148/89/1 165/88/1 145/87/1 
f 148/89/1 166/90/1 165/88/1 
f 151/91/1 166/90/1 148/89/1 
f 151/91/1 167/92/1 166/90/1 
f 154/93/3 167/92/1 151/91/1 
f 168/95/3 169/94/1 167/92/1 
f 154/93/3 168/95/3 167/92/1 
f 157/97/3 170/96/3 154/93/3 
f 170/96/3 168/95/3 154/93/3 
f 91/75/1 93/98/1 158/73/1 
f 93/98/1 171/99/1 158/73/1 
f 171/99/1 172/100/1 158/73/1 
f 171/99/1 107/101/1 172/100/1 
s off
f 95/102/1 107/21/1 171/103/1 
f 99/13/1 107/21/1 97/11/1 
f 97/11/1 107/21/1 95/9/1 
s 1
f 120/104/1 160/76/1 172/100/1 
f 107/101/1 120/104/1 172/100/1 
f 120/104/1 123/78/1 160/76/1 
f 173/105/4 71/71/2 84/106/2 
f 173/105/4 69/69/2 71/71/2 
f 174/107/4 70/70/2 69/69/2 
f 173/105/4 174/107/4 69/69/2 
f 175/105/1 170/106/3 157/71/3 
f 176/107/1 155/69/3 156/108/1 
f 175/105/1 157/71/3 155/69/3 
f 175/105/1 155/69/3 176/107/1 
# 250 faces

#
# object Motorway_Concrete_2x2
#

v  0.0034 0.0100 -22.9168
v  0.0034 0.0100 -20.7543
v  6.7543 0.0100 -20.7544
v  8.0035 0.0100 -22.9168
v  8.0035 0.0100 -20.7544
v  0.0034 0.0100 -18.7421
v  6.7543 0.0100 -18.7422
v  6.7543 0.0100 -14.5565
v  0.0034 0.0100 -14.5565
v  6.7543 0.0100 -10.5223
v  0.0034 0.0100 -10.5223
v  6.7543 0.0100 -6.3070
v  0.0034 0.0100 -6.3070
v  6.7543 0.0100 -2.1936
v  0.0034 0.0100 -2.1936
v  0.0034 0.0100 -0.5043
v  6.7543 0.0100 -0.5043
v  0.0034 0.0100 1.9915
v  7.0334 0.0100 1.9915
v  7.0334 0.0100 -0.5043
v  7.0334 0.0100 6.2042
v  0.0034 0.0100 6.2043
v  7.0334 0.0100 10.4004
v  0.0034 0.0100 10.4005
v  7.0334 0.0100 14.5359
v  0.0034 0.0100 14.5359
v  7.0334 0.0100 18.5665
v  0.0034 0.0100 18.5665
v  0.0034 0.0100 19.2957
v  7.0334 0.0100 19.2957
v  0.0034 0.0100 22.5094
v  8.0035 0.0100 22.5094
v  8.0035 0.0100 19.2957
v  -6.7468 0.0100 -20.7544
v  -7.9965 0.0100 -22.9168
v  -7.9959 0.0100 -20.7543
v  -6.7468 0.0100 -18.7422
v  -6.7474 0.0100 -14.5565
v  -6.7474 0.0100 -10.5223
v  -6.7474 0.0100 -6.3070
v  -6.7474 0.0100 -2.1936
v  -6.7474 0.0100 -0.5043
v  -7.0266 0.0100 1.9915
v  -7.0266 0.0100 -0.5043
v  -7.0266 0.0100 6.2043
v  -7.0259 0.0100 10.4004
v  -7.0259 0.0100 14.5359
v  -7.0259 0.0100 18.5665
v  -7.0259 0.0100 19.2957
v  -7.9966 0.0100 22.5094
v  -7.9960 0.0100 19.2957
# 51 vertices

vn 0.0000 1.0000 -0.0000
# 1 vertex normals

vt 0.4996 0.0004 0.0000
vt 0.4996 0.4329 0.0000
vt 0.9215 0.4329 0.0000
vt 0.9996 0.0004 0.0000
vt 0.9996 0.4329 0.0000
vt 0.4996 0.8354 0.0000
vt 0.9215 0.8354 0.0000
vt 0.9215 1.6725 0.0000
vt 0.4996 1.6725 0.0000
vt 0.9215 2.4793 0.0000
vt 0.4996 2.4793 0.0000
vt 0.9215 3.3224 0.0000
vt 0.4996 3.3224 0.0000
vt 0.9215 4.1451 0.0000
vt 0.4996 4.1451 0.0000
vt 0.4996 4.4829 0.0000
vt 0.9215 4.4829 0.0000
vt 0.4996 4.9821 0.0000
vt 0.9390 4.9821 0.0000
vt 0.9390 4.4829 0.0000
vt 0.9390 5.8246 0.0000
vt 0.4996 5.8246 0.0000
vt 0.9390 6.6639 0.0000
vt 0.4996 6.6639 0.0000
vt 0.9390 7.4910 0.0000
vt 0.4996 7.4910 0.0000
vt 0.9390 8.2971 0.0000
vt 0.4996 8.2971 0.0000
vt 0.4996 8.4429 0.0000
vt 0.9390 8.4429 0.0000
vt 0.4996 8.9992 0.0000
vt 0.9996 8.9992 0.0000
vt 0.9996 8.4429 0.0000
vt 0.0776 0.4329 0.0000
vt -0.0004 0.0004 0.0000
vt -0.0004 0.4329 0.0000
vt 0.0776 0.8354 0.0000
vt 0.0776 1.6725 0.0000
vt 0.0776 2.4793 0.0000
vt 0.0776 3.3224 0.0000
vt 0.0776 4.1451 0.0000
vt 0.0776 4.4829 0.0000
vt 0.0606 4.9821 0.0000
vt 0.0606 4.4829 0.0000
vt 0.0606 5.8246 0.0000
vt 0.0606 6.6639 0.0000
vt 0.0606 7.4910 0.0000
vt 0.0606 8.2971 0.0000
vt 0.0606 8.4429 0.0000
vt -0.0004 8.9992 0.0000
vt -0.0004 8.4429 0.0000
# 51 texture coords

g Motorway_Concrete_2x2
usemtl Material__135
s 1
f 177/109/5 178/110/5 179/111/5 
f 177/109/5 179/111/5 180/112/5 
f 180/112/5 179/111/5 181/113/5 
f 178/110/5 182/114/5 179/111/5 
f 182/114/5 183/115/5 179/111/5 
f 182/114/5 184/116/5 183/115/5 
f 185/117/5 184/116/5 182/114/5 
f 185/117/5 186/118/5 184/116/5 
f 187/119/5 186/118/5 185/117/5 
f 187/119/5 188/120/5 186/118/5 
f 189/121/5 188/120/5 187/119/5 
f 189/121/5 190/122/5 188/120/5 
f 191/123/5 190/122/5 189/121/5 
f 191/123/5 192/124/5 193/125/5 
f 191/123/5 193/125/5 190/122/5 
f 192/124/5 194/126/5 193/125/5 
f 194/126/5 195/127/5 193/125/5 
f 193/125/5 195/127/5 196/128/5 
f 194/126/5 197/129/5 195/127/5 
f 198/130/5 197/129/5 194/126/5 
f 198/130/5 199/131/5 197/129/5 
f 200/132/5 199/131/5 198/130/5 
f 200/132/5 201/133/5 199/131/5 
f 202/134/5 201/133/5 200/132/5 
f 202/134/5 203/135/5 201/133/5 
f 204/136/5 203/135/5 202/134/5 
f 204/136/5 205/137/5 206/138/5 
f 204/136/5 206/138/5 203/135/5 
f 205/137/5 207/139/5 206/138/5 
f 207/139/5 208/140/5 206/138/5 
f 206/138/5 208/140/5 209/141/5 
f 178/110/5 177/109/5 210/142/5 
f 210/142/5 177/109/5 211/143/5 
f 210/142/5 211/143/5 212/144/5 
f 182/114/5 178/110/5 210/142/5 
f 213/145/5 182/114/5 210/142/5 
f 214/146/5 182/114/5 213/145/5 
f 214/146/5 185/117/5 182/114/5 
f 215/147/5 185/117/5 214/146/5 
f 215/147/5 187/119/5 185/117/5 
f 216/148/5 187/119/5 215/147/5 
f 216/148/5 189/121/5 187/119/5 
f 217/149/5 189/121/5 216/148/5 
f 217/149/5 191/123/5 189/121/5 
f 192/124/5 191/123/5 218/150/5 
f 218/150/5 191/123/5 217/149/5 
f 194/126/5 192/124/5 218/150/5 
f 219/151/5 194/126/5 218/150/5 
f 219/151/5 218/150/5 220/152/5 
f 221/153/5 194/126/5 219/151/5 
f 221/153/5 198/130/5 194/126/5 
f 222/154/5 198/130/5 221/153/5 
f 222/154/5 200/132/5 198/130/5 
f 223/155/5 200/132/5 222/154/5 
f 223/155/5 202/134/5 200/132/5 
f 224/156/5 202/134/5 223/155/5 
f 224/156/5 204/136/5 202/134/5 
f 205/137/5 204/136/5 225/157/5 
f 225/157/5 204/136/5 224/156/5 
f 207/139/5 205/137/5 225/157/5 
f 226/158/5 207/139/5 225/157/5 
f 226/158/5 225/157/5 227/159/5 
# 62 faces

