mtllib MotorwayExit.mtl

#
# object Motorway_Asphalt_Primary
#

#
# object Motorway_Asphalt_Primary_Ramp
#

v  3.9183 0.0000 16.1494
v  3.8746 0.0000 16.9348
v  4.6536 0.0000 16.9348
v  4.6833 0.0000 16.1938
v  3.9780 0.0000 15.3616
v  4.7408 0.0000 15.4338
v  4.0673 0.0000 14.5770
v  4.8263 0.0000 14.6814
v  4.1932 0.0000 13.7981
v  4.9468 0.0000 13.9366
v  4.3481 0.0000 13.0465
v  5.0967 0.0000 13.2099
v  4.4971 0.0000 12.4049
v  5.2413 0.0000 12.5872
v  4.0013 0.0000 14.6814
v  4.0013 0.0000 12.5872
v  4.6847 0.0000 11.6725
v  5.4246 0.0000 11.8717
v  4.8925 0.0000 10.9357
v  5.6285 0.0000 11.1488
v  5.1096 0.0000 10.2042
v  5.8427 0.0000 10.4271
v  4.0013 0.0000 10.4271
v  5.3356 0.0000 9.4785
v  6.0657 0.0000 9.7109
v  5.5724 0.0000 8.7504
v  6.3008 0.0000 8.9880
v  5.8264 0.0000 7.9733
v  6.5550 0.0000 8.2105
v  4.0013 0.0000 8.2105
v  6.4845 0.0000 5.9491
v  7.2166 0.0000 6.1750
v  4.0013 0.0000 6.1750
v  7.0833 0.0000 3.9007
v  7.8209 0.0000 4.1082
v  4.0013 0.0000 4.1082
v  7.2578 0.0000 3.2015
v  8.0033 0.0000 3.3787
v  7.4183 0.0000 2.4895
v  8.1683 0.0000 2.6463
v  7.5324 0.0000 1.8888
v  8.2878 0.0000 2.0169
v  4.0013 0.0000 2.0169
v  7.6415 0.0000 1.1719
v  8.4010 0.0000 1.2732
v  7.7239 0.0000 0.4532
v  8.4865 0.0000 0.5275
v  7.7680 0.0000 -0.1105
v  8.5340 0.0000 -0.0920
v  4.0013 0.0000 -0.0920
v  7.7862 0.0000 -2.2117
v  8.5524 0.0000 -2.2117
v  4.0013 0.0000 -2.2117
v  7.8371 0.0000 -4.2426
v  8.6031 0.0000 -4.2238
v  4.0004 0.0000 -4.3353
v  8.0404 0.0000 -6.0605
v  8.8024 0.0000 -5.9804
v  4.2762 0.0000 -6.4560
v  8.3922 0.0000 -7.8690
v  9.1453 0.0000 -7.7278
v  4.6722 0.0000 -8.5669
v  8.8913 0.0000 -9.6759
v  9.6311 0.0000 -9.4764
v  5.2370 0.0000 -10.6612
v  9.5350 0.0000 -11.4790
v  10.2580 0.0000 -11.2254
v  5.9635 0.0000 -12.7320
v  9.9847 0.0000 -12.7339
v  10.7061 0.0000 -12.4754
v  6.4218 0.0000 -14.0109
v  3.8746 0.0000 14.6814
v  3.8746 0.0000 10.4271
v  3.8746 0.0000 12.5872
v  3.8746 0.0000 8.2105
v  3.8746 0.0000 6.1750
v  3.8746 0.0000 4.1082
v  3.8746 0.0000 2.0169
v  3.8746 0.0000 -0.0920
v  3.8746 0.0000 -2.2117
v  4.0013 0.0000 -6.4560
v  4.0013 0.0000 -8.5669
v  4.0014 0.0000 -10.6612
v  4.0014 0.0000 -12.7320
v  4.6538 0.0000 -14.2052
v  4.0014 0.0000 -14.2052
v  5.8109 0.0000 -14.2298
v  4.0013 0.0000 15.1571
v  7.8026 0.0000 -18.4304
v  12.2590 0.0000 -15.7509
# 90 vertices

vn 0.0000 1.0000 -0.0000
vn -0.0000 1.0000 -0.0000
vn 0.0000 1.0000 0.0000
vn -0.0000 1.0000 0.0000
# 4 vertex normals

vt 0.8527 0.1511 0.0000
vt 0.8527 0.0000 0.0000
vt 1.0000 0.0000 0.0000
vt 1.0000 0.1425 0.0000
vt 0.8527 0.3025 0.0000
vt 1.0000 0.2887 0.0000
vt 0.8527 0.4534 0.0000
vt 1.0000 0.4333 0.0000
vt 0.8527 0.6032 0.0000
vt 1.0000 0.5766 0.0000
vt 0.8527 0.7478 0.0000
vt 1.0000 0.7163 0.0000
vt 0.8527 0.8711 0.0000
vt 1.0000 0.8361 0.0000
vt 0.8314 0.3935 0.0000
vt 0.7659 0.7535 0.0000
vt 0.8527 1.0120 0.0000
vt 1.0000 0.9737 0.0000
vt 0.8527 1.1537 0.0000
vt 1.0000 1.1127 0.0000
vt 0.8527 1.2944 0.0000
vt 1.0000 1.2515 0.0000
vt 0.5921 1.2201 0.0000
vt 0.8527 1.4339 0.0000
vt 1.0000 1.3892 0.0000
vt 0.8527 1.5739 0.0000
vt 1.0000 1.5282 0.0000
vt 0.8527 1.7234 0.0000
vt 1.0000 1.6778 0.0000
vt 0.4176 1.6914 0.0000
vt 0.8527 2.0690 0.0000
vt 1.0000 2.0692 0.0000
vt 0.2746 2.0828 0.0000
vt 0.8527 2.4670 0.0000
vt 1.0000 2.4667 0.0000
vt 0.2071 2.4667 0.0000
vt 0.8527 2.6070 0.0000
vt 1.0000 2.6070 0.0000
vt 0.8527 2.7480 0.0000
vt 1.0000 2.7478 0.0000
vt 0.8527 2.8690 0.0000
vt 1.0000 2.8688 0.0000
vt 0.2003 2.8620 0.0000
vt 0.8527 3.0120 0.0000
vt 1.0000 3.0118 0.0000
vt 0.8527 3.1550 0.0000
vt 1.0000 3.1553 0.0000
vt 0.8527 3.2850 0.0000
vt 1.0000 3.2851 0.0000
vt 0.2003 3.2919 0.0000
vt 0.8527 3.7390 0.0000
vt 1.0000 3.7386 0.0000
vt 0.1694 3.7405 0.0000
vt 0.8527 4.1960 0.0000
vt 1.0000 4.1959 0.0000
vt 0.1248 4.1959 0.0000
vt 0.8527 4.6050 0.0000
vt 1.0000 4.6053 0.0000
vt 0.1248 4.6053 0.0000
vt 0.8527 5.0140 0.0000
vt 1.0000 5.0142 0.0000
vt 0.1248 5.0142 0.0000
vt 0.8527 5.4170 0.0000
vt 1.0000 5.4173 0.0000
vt 0.1248 5.4173 0.0000
vt 0.8527 5.8050 0.0000
vt 1.0000 5.8046 0.0000
vt 0.1248 5.8046 0.0000
vt 0.8527 6.0600 0.0000
vt 1.0000 6.0600 0.0000
vt 0.1248 6.0600 0.0000
vt 0.9160 -0.7664 0.0000
vt 0.9173 -1.1902 0.0000
vt 0.9251 -1.0425 0.0000
vt 0.9359 -0.8943 0.0000
vt 0.9136 0.0336 0.0000
vt 0.9149 -0.3726 0.0000
vt 0.9375 0.0337 0.0000
vt 0.9124 0.4505 0.0000
vt 0.9362 0.4505 0.0000
vt 0.9113 0.8332 0.0000
vt 0.9351 0.8333 0.0000
vt 0.9101 1.2219 0.0000
vt 0.9339 1.2220 0.0000
vt 0.9089 1.6152 0.0000
vt 0.9328 1.6153 0.0000
vt 0.9077 2.0118 0.0000
vt 0.9316 2.0118 0.0000
vt 0.9066 2.4104 0.0000
vt 0.9304 2.4105 0.0000
vt 0.6183 -0.2402 0.0000
vt 0.6825 -0.2418 0.0000
vt 0.6579 -0.7369 0.0000
vt 0.6950 0.2513 0.0000
vt 0.5383 0.2553 0.0000
vt 0.7073 0.7405 0.0000
vt 0.4187 0.7478 0.0000
vt 0.7196 1.2243 0.0000
vt 0.2612 1.2358 0.0000
vt 0.5759 1.5722 0.0000
vt 0.7283 1.5684 0.0000
vt 0.3057 1.5848 0.0000
vt 0.1617 1.5373 0.0000
vt 0.9401 -0.8558 0.0000
vt 0.9399 -0.7664 0.0000
vt 0.9387 -0.3725 0.0000
vt 0.8531 0.3414 0.0000
vt -0.0007 6.8585 0.0000
vt -0.0007 6.0600 0.0000
vt 0.9993 6.8585 0.0000
# 110 texture coords

g Motorway_Asphalt_Primary_Ramp
usemtl Material__110
s 1
f 1/1/1 2/2/1 3/3/1 
f 1/1/1 3/3/1 4/4/1 
f 5/5/1 1/1/1 4/4/1 
f 5/5/1 4/4/1 6/6/1 
f 7/7/2 5/5/1 6/6/1 
f 7/7/2 6/6/1 8/8/2 
f 9/9/2 7/7/2 8/8/2 
f 9/9/2 8/8/2 10/10/1 
f 11/11/1 9/9/2 10/10/1 
f 11/11/1 10/10/1 12/12/1 
f 13/13/3 11/11/1 12/12/1 
f 13/13/3 12/12/1 14/14/2 
f 9/9/2 15/15/2 7/7/2 
f 16/16/3 15/15/2 9/9/2 
f 11/11/1 16/16/3 9/9/2 
f 13/13/3 16/16/3 11/11/1 
f 17/17/3 13/13/3 14/14/2 
f 17/17/3 14/14/2 18/18/4 
f 19/19/4 17/17/3 18/18/4 
f 19/19/4 18/18/4 20/20/4 
f 21/21/3 19/19/4 20/20/4 
f 21/21/3 20/20/4 22/22/1 
f 17/17/3 16/16/3 13/13/3 
f 23/23/4 16/16/3 17/17/3 
f 19/19/4 23/23/4 17/17/3 
f 21/21/3 23/23/4 19/19/4 
f 24/24/1 21/21/3 22/22/1 
f 24/24/1 22/22/1 25/25/1 
f 26/26/3 24/24/1 25/25/1 
f 26/26/3 25/25/1 27/27/3 
f 28/28/3 26/26/3 27/27/3 
f 28/28/3 27/27/3 29/29/4 
f 24/24/1 23/23/4 21/21/3 
f 30/30/2 23/23/4 24/24/1 
f 26/26/3 30/30/2 24/24/1 
f 28/28/3 30/30/2 26/26/3 
f 31/31/4 28/28/3 29/29/4 
f 31/31/4 29/29/4 32/32/3 
f 33/33/1 30/30/2 28/28/3 
f 31/31/4 33/33/1 28/28/3 
f 34/34/1 31/31/4 32/32/3 
f 34/34/1 32/32/3 35/35/3 
f 36/36/2 33/33/1 31/31/4 
f 34/34/1 36/36/2 31/31/4 
f 37/37/2 34/34/1 35/35/3 
f 37/37/2 35/35/3 38/38/4 
f 39/39/2 37/37/2 38/38/4 
f 39/39/2 38/38/4 40/40/2 
f 41/41/4 39/39/2 40/40/2 
f 41/41/4 40/40/2 42/42/1 
f 37/37/2 36/36/2 34/34/1 
f 43/43/4 36/36/2 37/37/2 
f 39/39/2 43/43/4 37/37/2 
f 41/41/4 43/43/4 39/39/2 
f 44/44/1 41/41/4 42/42/1 
f 44/44/1 42/42/1 45/45/1 
f 46/46/3 44/44/1 45/45/1 
f 46/46/3 45/45/1 47/47/3 
f 48/48/3 46/46/3 47/47/3 
f 48/48/3 47/47/3 49/49/1 
f 44/44/1 43/43/4 41/41/4 
f 50/50/4 43/43/4 44/44/1 
f 46/46/3 50/50/4 44/44/1 
f 48/48/3 50/50/4 46/46/3 
f 51/51/4 48/48/3 49/49/1 
f 51/51/4 49/49/1 52/52/3 
f 53/53/2 50/50/4 48/48/3 
f 51/51/4 53/53/2 48/48/3 
f 54/54/1 51/51/4 52/52/3 
f 54/54/1 52/52/3 55/55/1 
f 56/56/4 53/53/2 51/51/4 
f 54/54/1 56/56/4 51/51/4 
f 57/57/2 54/54/1 55/55/1 
f 57/57/2 55/55/1 58/58/4 
f 59/59/1 56/56/4 54/54/1 
f 57/57/2 59/59/1 54/54/1 
f 60/60/2 57/57/2 58/58/4 
f 60/60/2 58/58/4 61/61/1 
f 62/62/2 59/59/1 57/57/2 
f 60/60/2 62/62/2 57/57/2 
f 63/63/1 60/60/2 61/61/1 
f 63/63/1 61/61/1 64/64/1 
f 65/65/2 62/62/2 60/60/2 
f 63/63/1 65/65/2 60/60/2 
f 66/66/2 63/63/1 64/64/1 
f 66/66/2 64/64/1 67/67/2 
f 68/68/1 65/65/2 63/63/1 
f 66/66/2 68/68/1 63/63/1 
f 69/69/4 66/66/2 67/67/2 
f 69/69/4 67/67/2 70/70/2 
f 71/71/2 68/68/1 66/66/2 
f 69/69/4 71/71/2 66/66/2 
f 72/72/3 2/73/1 1/74/1 
f 5/75/1 72/72/3 1/74/1 
f 73/76/3 74/77/3 23/78/4 
f 75/79/1 73/76/3 23/78/4 
f 75/79/1 23/78/4 30/80/2 
f 76/81/1 75/79/1 30/80/2 
f 76/81/1 30/80/2 33/82/1 
f 77/83/1 76/81/1 33/82/1 
f 77/83/1 33/82/1 36/84/2 
f 78/85/1 77/83/1 36/84/2 
f 78/85/1 36/84/2 43/86/4 
f 79/87/1 78/85/1 43/86/4 
f 79/87/1 43/86/4 50/88/4 
f 80/89/1 79/87/1 50/88/4 
f 80/89/1 50/88/4 53/90/2 
s off
f 59/91/3 81/92/3 56/93/3 
f 59/91/2 82/94/2 81/92/2 
f 62/95/2 82/94/2 59/91/2 
f 62/95/1 83/96/1 82/94/1 
f 65/97/1 83/96/1 62/95/1 
f 65/97/1 84/98/1 83/96/1 
f 68/99/1 84/98/1 65/97/1 
f 85/100/2 86/101/2 84/98/2 
f 68/99/2 85/100/2 84/98/2 
f 87/102/2 85/100/2 68/99/2 
f 87/102/2 68/99/2 71/103/2 
s 1
f 88/104/1 72/72/3 5/75/1 
f 15/105/2 72/72/3 88/104/1 
s off
f 15/105/2 74/77/2 72/72/2 
f 16/106/2 74/77/2 15/105/2 
f 88/107/3 7/7/3 15/15/3 
f 23/78/3 74/77/3 16/106/3 
s 1
f 71/71/2 89/108/2 87/109/2 
f 90/110/1 89/108/2 69/69/4 
f 70/70/2 90/110/1 69/69/4 
f 69/69/4 89/108/2 71/71/2 
# 128 faces

#
# object Motorway_Asphalt_Primary
#

v  -4.3464 0.0000 16.9348
v  -4.3464 0.0000 18.8229
v  3.8746 0.0000 16.9348
v  4.6536 0.0000 18.8229
v  4.6536 0.0000 16.9348
v  -4.3464 0.0000 14.6814
v  3.8746 0.0000 14.6814
v  3.8746 0.0000 12.5872
v  -4.3464 0.0000 12.5872
v  3.8746 0.0000 10.4271
v  -4.3464 0.0000 10.4271
v  3.8746 0.0000 8.2105
v  -4.3464 0.0000 8.2105
v  3.8746 0.0000 6.1750
v  -4.3464 0.0000 6.1750
v  3.8746 0.0000 4.1082
v  -4.3464 0.0000 4.1082
v  3.8746 0.0000 2.0169
v  -4.3464 0.0000 2.0169
v  3.8746 0.0000 -0.0920
v  -4.3464 0.0000 -0.0920
v  -4.3464 0.0000 -2.2117
v  3.8746 0.0000 -2.2117
v  -4.3464 0.0000 -4.3353
v  4.0013 0.0000 -4.3353
v  4.0013 0.0000 -6.4560
v  -4.3464 0.0000 -6.4560
v  4.0013 0.0000 -8.5669
v  -4.3464 0.0000 -8.5669
v  4.0015 0.0000 -10.6612
v  -4.3462 0.0000 -10.6612
v  4.0014 0.0000 -12.7320
v  -4.3462 0.0000 -12.7320
v  -4.3462 0.0000 -14.2052
v  4.0014 0.0000 -14.2052
v  -4.3462 0.0000 -14.7725
v  4.6538 0.0000 -14.7725
v  4.6538 0.0000 -14.2052
v  4.6538 0.0000 -16.7758
v  -4.3462 0.0000 -16.7758
v  4.6538 0.0000 -18.9498
v  -4.3462 0.0000 -18.9498
v  4.0013 0.0000 -2.2117
# 43 vertices

vn 0.0000 1.0000 0.0000
vn -0.0000 1.0000 0.0000
vn -0.0000 1.0000 -0.0000
vn 0.0000 1.0000 -0.0000
# 4 vertex normals

vt 0.0000 2.4158 0.0000
vt 0.0000 2.0381 0.0000
vt 0.9134 2.4158 0.0000
vt 1.0000 2.0381 0.0000
vt 1.0000 2.4158 0.0000
vt 0.0000 2.8664 0.0000
vt 0.9134 2.8664 0.0000
vt 0.9134 3.2853 0.0000
vt 0.0000 3.2853 0.0000
vt 0.9134 3.7173 0.0000
vt 0.0000 3.7173 0.0000
vt 0.9134 4.1606 0.0000
vt 0.0000 4.1606 0.0000
vt 0.9134 4.5677 0.0000
vt 0.0000 4.5677 0.0000
vt 0.9134 4.9811 0.0000
vt 0.0000 4.9811 0.0000
vt 0.9134 5.3994 0.0000
vt 0.0000 5.3994 0.0000
vt 0.9134 5.8211 0.0000
vt 0.0000 5.8211 0.0000
vt 0.0000 6.2451 0.0000
vt 0.9132 6.2455 0.0000
vt 0.0000 6.6698 0.0000
vt 0.9274 6.6695 0.0000
vt 0.9275 7.0939 0.0000
vt 0.0000 7.0939 0.0000
vt 0.9275 7.5161 0.0000
vt 0.0000 7.5161 0.0000
vt 0.9275 7.9350 0.0000
vt 0.0000 7.9350 0.0000
vt 0.9275 8.3491 0.0000
vt 0.0000 8.3491 0.0000
vt 0.0000 8.6438 0.0000
vt 0.9275 8.6438 0.0000
vt 0.0000 8.7572 0.0000
vt 1.0000 8.7572 0.0000
vt 1.0000 8.6438 0.0000
vt 1.0000 9.1579 0.0000
vt 0.0000 9.1579 0.0000
vt 1.0000 9.5927 0.0000
vt 0.0000 9.5927 0.0000
vt 0.9294 6.2460 0.0000
# 43 texture coords

g Motorway_Asphalt_Primary
usemtl Material__110
s 1
f 91/111/5 92/112/5 93/113/6 
f 93/113/6 92/112/5 94/114/5 
f 93/113/6 94/114/5 95/115/5 
f 96/116/7 91/111/5 93/113/6 
f 97/117/7 96/116/7 93/113/6 
f 98/118/5 96/116/7 97/117/7 
f 98/118/5 99/119/5 96/116/7 
f 100/120/5 99/119/5 98/118/5 
f 100/120/5 101/121/5 99/119/5 
f 102/122/8 101/121/5 100/120/5 
f 102/122/8 103/123/8 101/121/5 
f 104/124/8 103/123/8 102/122/8 
f 104/124/8 105/125/8 103/123/8 
f 106/126/8 105/125/8 104/124/8 
f 106/126/8 107/127/8 105/125/8 
f 108/128/8 107/127/8 106/126/8 
f 108/128/8 109/129/8 107/127/8 
f 110/130/8 109/129/8 108/128/8 
f 110/130/8 111/131/8 109/129/8 
f 112/132/7 111/131/8 113/133/7 
f 113/133/7 111/131/8 110/130/8 
f 114/134/5 112/132/7 113/133/7 
f 115/135/5 114/134/5 113/133/7 
f 116/136/7 114/134/5 115/135/5 
f 116/136/7 117/137/7 114/134/5 
f 118/138/7 117/137/7 116/136/7 
f 118/138/7 119/139/7 117/137/7 
f 120/140/8 119/139/7 118/138/7 
f 120/140/8 121/141/8 119/139/7 
f 122/142/7 121/141/8 120/140/8 
f 122/142/7 123/143/7 121/141/8 
f 124/144/5 123/143/7 125/145/6 
f 125/145/6 123/143/7 122/142/7 
f 126/146/5 124/144/5 125/145/6 
f 127/147/5 126/146/5 125/145/6 
f 127/147/5 125/145/6 128/148/5 
f 129/149/7 126/146/5 127/147/5 
f 129/149/7 130/150/7 126/146/5 
f 131/151/7 130/150/7 129/149/7 
f 131/151/7 132/152/7 130/150/7 
f 115/135/7 113/133/7 133/153/7 
# 41 faces

