
v  -0.0544 -10.8028 76.7653
v  0.3393 -10.8028 76.7653
v  0.1425 10.2032 41.8020
v  0.1425 10.2032 -40.0000
v  -0.0544 -10.7074 -75.8368
v  0.3393 -10.7074 -75.8368
v  -0.0544 -1.4375 81.8675
v  0.3393 -1.4375 81.8675
v  0.1425 22.0143 41.8020
v  0.1425 22.0143 -40.0000
v  -0.0544 -1.5329 -80.4910
v  0.3393 -1.5329 -80.4910
v  -1.9593 -8.9297 77.7857
v  -1.5655 -8.9297 77.7857
v  -1.5656 12.5654 41.8020
v  -1.5655 12.5654 -40.0000
v  -1.5655 -8.8725 -76.7676
v  -1.9592 -8.8725 -76.7676
v  -1.9592 12.5654 -40.0000
v  -1.9593 12.5654 41.8020
v  -0.0544 -7.0567 78.8062
v  0.3393 -7.0567 78.8062
v  0.3393 14.9276 41.7999
v  0.3393 14.9277 -40.0000
v  0.3393 -7.0376 -77.6985
v  -0.0544 -7.0376 -77.6985
v  -0.0544 14.9277 -40.0000
v  -0.0544 14.9276 41.8020
v  -0.0544 -5.1836 79.8266
v  0.3393 -5.1836 79.8266
v  0.3393 17.2899 41.7999
v  0.3393 17.2899 -40.0000
v  0.3393 -5.2027 -78.6293
v  -0.0544 -5.2027 -78.6293
v  -0.0544 17.2899 -40.0000
v  -0.0544 17.2899 41.8020
v  -1.9593 -3.3106 80.8471
v  -1.5655 -3.3106 80.8471
v  -1.5656 19.6521 41.8020
v  -1.5655 19.6521 -40.0000
v  -1.5655 -3.3678 -79.5602
v  -1.9592 -3.3678 -79.5602
v  -1.9592 19.6521 -40.0000
v  -1.9593 19.6521 41.8020
v  0.1425 10.2032 40.0000
v  0.1425 22.0143 40.0000
v  -1.5656 12.5654 40.0000
v  0.3393 14.9276 40.0000
v  0.3393 17.2899 40.0000
v  -1.5656 19.6521 39.9999
v  -1.9593 12.5654 40.0000
v  -0.0544 14.9276 40.0000
v  -0.0544 17.2835 40.0000
v  -1.9593 19.6521 40.0000
v  0.3558 -0.3723 41.9370
v  2.2671 -0.3723 41.0245
v  0.3558 -0.3723 40.0990
v  0.3558 22.1202 41.9370
v  2.2671 22.1202 41.0245
v  0.3558 22.1202 40.0990
v  0.3558 -0.5525 -38.0817
v  2.2671 -0.5525 -38.9942
v  0.3558 -0.5525 -39.9197
v  0.3558 21.9400 -38.0817
v  2.2671 21.9400 -38.9942
v  0.3558 21.9400 -39.9197
# 66 vertices

vn 0.7416 -0.6423 -0.1933
vn 0.9035 -0.3662 -0.2225
vn -0.4053 -0.7826 -0.4725
vn 0.9037 -0.3676 0.2195
vn 0.7402 -0.6426 0.1981
vn -0.3944 -0.7937 0.4631
vn 0.0000 0.8630 0.5052
vn 0.0000 0.8630 0.5052
vn 0.0000 0.8630 0.5052
vn 0.0000 0.8645 -0.5027
vn 0.0000 0.8645 -0.5027
vn 0.0000 0.8645 -0.5027
vn 0.9902 -0.1229 -0.0659
vn 0.9999 0.0135 0.0092
vn 0.9035 -0.3662 -0.2225
vn 0.7416 -0.6423 -0.1933
vn 0.6261 -0.7797 -0.0000
vn 0.9997 -0.0263 0.0000
vn 0.9902 -0.1229 -0.0659
vn 0.7416 -0.6423 -0.1933
vn 0.9997 0.0220 -0.0103
vn 0.9906 -0.1215 0.0629
vn 0.7402 -0.6426 0.1981
vn 0.9037 -0.3676 0.2195
vn 0.9249 -0.3694 -0.0901
vn 0.9314 -0.3129 -0.1859
vn 0.9999 0.0135 0.0092
vn 0.9902 -0.1229 -0.0659
vn 0.9997 -0.0263 0.0000
vn 0.8976 -0.4408 0.0000
vn 0.9249 -0.3694 -0.0901
vn 0.9902 -0.1229 -0.0659
vn 0.9262 -0.3257 0.1899
vn 0.9579 -0.2792 0.0669
vn 0.9906 -0.1215 0.0629
vn 0.9997 0.0220 -0.0103
vn 0.8539 0.4957 0.1585
vn 0.9367 0.3018 0.1775
vn 0.9314 -0.3129 -0.1859
vn 0.9249 -0.3694 -0.0901
vn 1.0000 0.0000 -0.0000
vn 1.0000 0.0000 -0.0000
vn 1.0000 0.0000 -0.0000
vn 1.0000 0.0000 -0.0000
vn 0.9354 0.3056 -0.1779
vn 0.9197 0.3744 -0.1179
vn 0.9579 -0.2792 0.0669
vn 0.9262 -0.3257 0.1899
vn 0.9961 -0.0724 -0.0500
vn 0.9999 0.0130 0.0063
vn 0.9367 0.3018 0.1775
vn 0.8539 0.4957 0.1585
vn 0.8976 0.4408 -0.0000
vn 0.9997 0.0263 0.0000
vn 0.9961 -0.0724 -0.0500
vn 0.8539 0.4957 0.1585
vn 0.9997 0.0215 -0.0127
vn 0.9961 -0.0716 0.0509
vn 0.9197 0.3744 -0.1179
vn 0.9354 0.3056 -0.1779
vn 0.5781 0.7963 0.1783
vn 0.7457 -0.5734 -0.3393
vn 0.9999 0.0130 0.0063
vn 0.9961 -0.0724 -0.0500
vn 0.9997 0.0263 0.0000
vn 0.6261 0.7797 0.0000
vn 0.5781 0.7963 0.1783
vn 0.9961 -0.0724 -0.0500
vn 0.7345 -0.5865 0.3414
vn 0.5782 0.7954 -0.1819
vn 0.9961 -0.0716 0.0509
vn 0.9997 0.0215 -0.0127
vn -0.9954 0.0798 -0.0528
vn -0.9997 -0.0217 0.0128
vn -0.3944 -0.7937 0.4631
vn 0.7402 -0.6426 0.1981
vn 0.6261 -0.7797 -0.0000
vn -0.9997 -0.0242 -0.0000
vn -0.9954 0.0798 -0.0528
vn 0.7402 -0.6426 0.1981
vn -0.9998 -0.0142 -0.0125
vn -0.9952 0.0809 0.0549
vn 0.7416 -0.6423 -0.1933
vn -0.4053 -0.7826 -0.4725
vn -0.9579 0.2791 -0.0669
vn -0.9262 0.3257 -0.1898
vn -0.9997 -0.0217 0.0128
vn -0.9954 0.0798 -0.0528
vn -0.9997 -0.0242 -0.0000
vn -0.9430 0.3328 0.0000
vn -0.9579 0.2791 -0.0669
vn -0.9954 0.0798 -0.0528
vn -0.9312 0.3130 0.1869
vn -0.9581 0.2783 0.0677
vn -0.9952 0.0809 0.0549
vn -0.9998 -0.0142 -0.0125
vn -0.9197 -0.3744 0.1180
vn -0.9354 -0.3057 0.1779
vn -0.9262 0.3257 -0.1898
vn -0.9579 0.2791 -0.0669
vn -0.9430 0.3328 0.0000
vn -0.9433 -0.3319 0.0006
vn -0.9197 -0.3744 0.1180
vn -0.9579 0.2791 -0.0669
vn -0.9369 -0.3010 -0.1779
vn -0.9194 -0.3748 -0.1189
vn -0.9581 0.2783 0.0677
vn -0.9312 0.3130 0.1869
vn -0.9900 0.1249 -0.0654
vn -0.9997 -0.0197 0.0138
vn -0.9354 -0.3057 0.1779
vn -0.9197 -0.3744 0.1180
vn -0.9433 -0.3319 0.0006
vn -0.9997 0.0247 0.0002
vn -0.9900 0.1249 -0.0654
vn -0.9197 -0.3744 0.1180
vn -0.9999 -0.0119 -0.0081
vn -0.9900 0.1253 0.0643
vn -0.9194 -0.3748 -0.1189
vn -0.9369 -0.3010 -0.1779
vn 0.5782 0.7954 -0.1819
vn -0.7333 0.5893 -0.3391
vn -0.9997 -0.0197 0.0138
vn -0.9900 0.1249 -0.0654
vn -0.9997 0.0247 0.0002
vn 0.6261 0.7797 0.0000
vn 0.5782 0.7954 -0.1819
vn -0.9900 0.1249 -0.0654
vn -0.7438 0.5762 0.3387
vn 0.5781 0.7963 0.1783
vn -0.9900 0.1253 0.0643
vn -0.9999 -0.0119 -0.0081
vn 0.7402 -0.6426 0.1981
vn 0.9906 -0.1215 0.0629
vn 0.9997 -0.0263 0.0000
vn 0.6261 -0.7797 -0.0000
vn 0.9906 -0.1215 0.0629
vn 0.9579 -0.2792 0.0669
vn 0.8976 -0.4408 0.0000
vn 0.9997 -0.0263 0.0000
vn 0.9579 -0.2792 0.0669
vn 0.9197 0.3744 -0.1179
vn 0.8976 0.4408 -0.0000
vn 0.8976 -0.4408 0.0000
vn 0.9197 0.3744 -0.1179
vn 0.9961 -0.0716 0.0509
vn 0.9997 0.0263 0.0000
vn 0.8976 0.4408 -0.0000
vn 0.9961 -0.0716 0.0509
vn 0.5782 0.7954 -0.1819
vn 0.6261 0.7797 0.0000
vn 0.9997 0.0263 0.0000
vn 0.7416 -0.6423 -0.1933
vn -0.9952 0.0809 0.0549
vn -0.9997 -0.0242 -0.0000
vn 0.6261 -0.7797 -0.0000
vn -0.9952 0.0809 0.0549
vn -0.9581 0.2783 0.0677
vn -0.9430 0.3328 0.0000
vn -0.9997 -0.0242 -0.0000
vn -0.9581 0.2783 0.0677
vn -0.9194 -0.3748 -0.1189
vn -0.9433 -0.3319 0.0006
vn -0.9430 0.3328 0.0000
vn -0.9194 -0.3748 -0.1189
vn -0.9900 0.1253 0.0643
vn -0.9997 0.0247 0.0002
vn -0.9433 -0.3319 0.0006
vn -0.9900 0.1253 0.0643
vn 0.5781 0.7963 0.1783
vn 0.6261 0.7797 0.0000
vn -0.9997 0.0247 0.0002
vn 0.0000 1.0000 -0.0000
vn 0.0000 1.0000 -0.0000
vn 0.0000 1.0000 -0.0000
vn 0.4308 0.0000 0.9024
vn 0.4308 0.0000 0.9024
vn 0.4308 0.0000 0.9024
vn 0.4308 0.0000 0.9024
vn 0.4358 0.0000 -0.9000
vn 0.4358 0.0000 -0.9000
vn 0.4358 0.0000 -0.9000
vn 0.4358 0.0000 -0.9000
vn -1.0000 0.0000 -0.0000
vn -1.0000 0.0000 -0.0000
vn -1.0000 0.0000 -0.0000
vn -1.0000 0.0000 -0.0000
vn 0.0000 1.0000 -0.0000
vn 0.0000 1.0000 -0.0000
vn 0.0000 1.0000 -0.0000
vn 0.4308 0.0000 0.9024
vn 0.4308 0.0000 0.9024
vn 0.4308 0.0000 0.9024
vn 0.4308 0.0000 0.9024
vn 0.4358 0.0000 -0.9000
vn 0.4358 0.0000 -0.9000
vn 0.4358 0.0000 -0.9000
vn 0.4358 0.0000 -0.9000
vn -1.0000 0.0000 -0.0000
vn -1.0000 0.0000 -0.0000
vn -1.0000 0.0000 -0.0000
vn -1.0000 0.0000 -0.0000
# 202 vertex normals

vt 0.3333 0.4000 0.0000
vt 0.3333 0.6000 0.0000
vt 0.3423 0.4000 0.0000
vt 0.3423 0.6000 0.0000
vt 0.0000 0.8026 0.0000
vt 0.0000 0.8473 0.0000
vt 0.0000 0.8956 0.0000
vt 0.0000 0.9226 0.0000
vt 0.0000 0.9627 0.0000
vt 0.0000 1.0000 0.0000
vt 1.0000 0.8026 0.0000
vt 1.0000 1.0001 0.0000
vt 1.0000 0.8474 0.0000
vt 1.0000 0.8957 0.0000
vt 1.0000 0.9226 0.0000
vt 1.0000 0.9628 0.0000
vt 0.0241 0.8033 0.0000
vt 0.0243 0.8475 0.0000
vt 0.0243 0.8948 0.0000
vt 0.0243 0.9215 0.0000
vt 0.0243 0.9635 0.0000
vt 0.0243 1.0000 0.0000
vt -0.0008 0.8033 0.0000
vt -0.0005 1.0000 0.0000
vt -0.0006 0.8475 0.0000
vt -0.0006 0.8948 0.0000
vt -0.0006 0.9215 0.0000
vt -0.0005 0.9635 0.0000
vt 0.0241 0.8033 0.0000
vt 0.6031 0.8033 0.0000
vt 0.0243 0.8475 0.0000
vt 0.6035 0.8475 0.0000
vt 0.0243 0.8948 0.0000
vt 0.6035 0.8948 0.0000
vt 0.0243 0.9215 0.0000
vt 0.6035 0.9215 0.0000
vt 0.0243 0.9635 0.0000
vt 0.6035 0.9635 0.0000
vt 0.0243 1.0000 0.0000
vt 0.6035 1.0000 0.0000
vt 0.4462 0.8013 0.0000
vt 0.9997 0.8013 0.0000
vt 0.4462 0.8468 0.0000
vt 0.9997 0.8468 0.0000
vt 0.4462 0.8950 0.0000
vt 0.9997 0.8950 0.0000
vt 0.4462 0.9219 0.0000
vt 0.9997 0.9219 0.0000
vt 0.4462 0.9644 0.0000
vt 0.9997 0.9644 0.0000
vt 0.4462 1.0003 0.0000
vt 0.9997 1.0003 0.0000
vt 0.8681 0.9390 0.0000
vt 0.8681 0.9443 0.0000
vt 0.3420 0.9390 0.0000
vt 0.9384 0.9437 0.0000
vt 0.5299 0.9380 0.0000
vt 0.5298 0.9437 0.0000
vt 0.8947 0.8513 0.0000
vt 0.0081 0.8513 0.0000
vt 0.0081 0.8588 0.0000
vt 0.8794 0.8514 0.0000
vt 0.8770 0.8608 0.0000
vt 0.0904 0.8608 0.0000
vt 0.7013 0.9179 0.0000
vt 0.7013 0.9559 0.0000
vt 0.2272 0.9179 0.0000
vt 0.2272 0.9559 0.0000
vt 0.7013 0.9179 0.0000
vt 0.7013 0.9559 0.0000
vt 0.2272 0.9179 0.0000
vt 0.2272 0.9559 0.0000
vt 0.7013 0.9179 0.0000
vt 0.7013 0.9559 0.0000
vt 0.2272 0.9179 0.0000
vt 0.2272 0.9559 0.0000
vt 0.7013 0.9179 0.0000
vt 0.7013 0.9559 0.0000
vt 0.2272 0.9179 0.0000
vt 0.2272 0.9559 0.0000
vt 0.3481 0.8594 0.0000
vt 0.3669 0.8782 0.0000
vt 0.3857 0.8594 0.0000
vt 0.3481 0.8594 0.0000
vt 0.3669 0.8782 0.0000
vt 0.3857 0.8594 0.0000
vt 0.0000 0.9990 0.0000
vt 0.0000 0.9543 0.0000
vt 0.0000 0.9060 0.0000
vt 0.0000 0.8790 0.0000
vt 0.0000 0.8377 0.0000
vt 0.0000 0.8016 0.0000
vt 1.0000 0.9989 0.0000
vt 1.0000 0.8015 0.0000
vt 1.0000 0.9542 0.0000
vt 1.0000 0.9059 0.0000
vt 1.0000 0.8789 0.0000
vt 1.0000 0.8376 0.0000
vt 0.6042 0.9983 0.0000
vt 0.0241 0.9983 0.0000
vt 0.6035 0.9541 0.0000
vt 0.0243 0.9541 0.0000
vt 0.6035 0.9068 0.0000
vt 0.0243 0.9068 0.0000
vt 0.6035 0.8800 0.0000
vt 0.0243 0.8800 0.0000
vt 0.6035 0.8369 0.0000
vt 0.0243 0.8369 0.0000
vt 0.6035 0.8016 0.0000
vt 0.0243 0.8016 0.0000
vt -0.0008 0.9983 0.0000
vt -0.0005 0.8016 0.0000
vt -0.0006 0.9541 0.0000
vt -0.0006 0.9068 0.0000
vt -0.0006 0.8800 0.0000
vt -0.0005 0.8369 0.0000
vt 0.9997 1.0003 0.0000
vt 0.4462 1.0003 0.0000
vt 0.9997 0.9547 0.0000
vt 0.4462 0.9547 0.0000
vt 0.9997 0.9066 0.0000
vt 0.4462 0.9066 0.0000
vt 0.9997 0.8797 0.0000
vt 0.4462 0.8797 0.0000
vt 0.9997 0.8360 0.0000
vt 0.4462 0.8360 0.0000
vt 0.9997 0.8013 0.0000
vt 0.4462 0.8013 0.0000
# 128 texture coords

g guardrail
s 1
f 3/55/1 2/53/2 1/54/3 
f 6/57/4 4/56/5 5/58/6 
s 2
f 9/64/7 7/62/8 8/63/9 
f 12/61/10 11/60/11 10/59/12 
s 1
f 15/102/13 14/101/14 2/99/15 3/100/16 
f 45/111/17 47/113/18 15/102/19 3/100/20 
s 5
f 17/120/21 16/119/22 4/117/23 6/118/24 
s 1
f 23/104/25 22/103/26 14/101/27 15/102/28 
f 47/113/29 48/114/30 23/104/31 15/102/32 
f 25/122/33 24/121/34 16/119/35 17/120/36 
f 31/106/37 30/105/38 22/103/39 23/104/40 
s 4
f 48/3/41 49/4/42 31/2/43 23/1/44 
s 5
f 33/124/45 32/123/46 24/121/47 25/122/48 
s 1
f 39/108/49 38/107/50 30/105/51 31/106/52 
f 49/115/53 50/116/54 39/108/55 31/106/56 
f 41/126/57 40/125/58 32/123/59 33/124/60 
f 9/110/61 8/109/62 38/107/63 39/108/64 
f 50/116/65 46/112/66 9/110/67 39/108/68 
s 5
f 12/128/69 10/127/70 40/125/71 41/126/72 
f 19/44/73 18/43/74 5/41/75 4/42/76 
s 1
f 45/11/77 51/13/78 19/6/79 4/5/80 
f 13/32/81 20/31/82 3/29/83 1/30/84 
f 27/46/85 26/45/86 18/43/87 19/44/88 
f 51/13/89 52/14/90 27/7/91 19/6/92 
f 21/34/93 28/33/94 20/31/95 13/32/96 
s 5
f 35/48/97 34/47/98 26/45/99 27/46/100 
s 1
f 52/14/101 53/15/102 35/8/103 27/7/104 
f 29/36/105 36/35/106 28/33/107 21/34/108 
f 43/50/109 42/49/110 34/47/111 35/48/112 
f 53/15/113 54/16/114 43/9/115 35/8/116 
f 37/38/117 44/37/118 36/35/119 29/36/120 
s 5
f 10/52/121 11/51/122 42/49/123 43/50/124 
s 1
f 54/16/125 46/12/126 10/10/127 43/9/128 
f 7/40/129 9/39/130 44/37/131 37/38/132 
f 4/87/133 16/88/134 47/95/135 45/93/136 
f 16/88/137 24/89/138 48/96/139 47/95/140 
f 24/89/141 32/90/142 49/97/143 48/96/144 
f 32/90/145 40/91/146 50/98/147 49/97/148 
f 40/91/149 10/92/150 46/94/151 50/98/152 
f 3/17/153 20/18/154 51/25/155 45/23/156 
f 20/18/157 28/19/158 52/26/159 51/25/160 
f 28/19/161 36/20/162 53/27/163 52/26/164 
f 36/20/165 44/21/166 54/28/167 53/27/168 
f 44/21/169 9/22/170 46/24/171 54/28/172 
f 59/83/173 60/82/174 58/81/175 
s 2
f 55/69/176 56/70/177 59/72/178 58/71/179 
s 4
f 56/69/180 57/70/181 60/72/182 59/71/183 
s 8
f 57/65/184 55/66/185 58/68/186 60/67/187 
s 1
f 65/86/188 66/85/189 64/84/190 
s 2
f 61/77/191 62/78/192 65/80/193 64/79/194 
s 4
f 62/77/195 63/78/196 66/80/197 65/79/198 
s 8
f 63/73/199 61/74/200 64/76/201 66/75/202 
# 46 polygons - 6 triangles

