mtllib Mountain_Barrier_Block.mtl
o lo
v -1.692200 2.324202 -3.137512
v -1.856500 1.201702 -1.690212
v -1.697000 2.400301 0.003687
v 1.908400 0.508802 -3.308413
v 1.961300 2.234102 -0.032212
v 1.952400 -0.550298 -1.596613
v 1.873400 -0.467498 -3.208913
v 0.489500 -0.516998 -3.255113
v 1.927300 -0.636599 2.657187
v 2.004900 0.613201 2.656987
v 0.272800 1.352801 2.769487
v 1.167700 -0.600999 2.732887
v 0.477500 -0.604999 2.759187
v -1.317200 2.592201 -0.432813
v 0.036200 2.907002 -1.542812
v -1.870000 -0.561798 -2.023513
v -1.765000 0.548602 -3.143113
v -1.800500 -0.613998 -3.196012
v 2.011700 2.176301 0.891388
v 1.996200 -0.592999 1.298087
v 1.990100 -0.557799 0.402287
v -1.859000 0.367002 -1.020013
v -1.740200 -0.605499 1.227387
v -1.767300 -0.612999 2.086287
v -1.831700 0.428701 0.665787
v 1.927000 -0.532998 -2.369312
v 0.647200 2.684402 -3.192813
v 1.488900 2.534001 -0.032912
v 1.881500 2.242902 -3.236213
v -0.436400 -0.596399 2.768987
v -1.673100 0.821801 2.772587
v -0.990500 -0.563598 -3.237613
v -1.809400 1.280001 1.542788
v -1.564200 2.398301 2.742688
v -1.670200 -0.592099 2.785287
v 2.055700 2.198101 2.639888
v 1.502000 2.503201 2.642388
v 1.956500 -0.549599 -0.672812
v 1.996000 -0.593099 2.067287
v -0.071600 2.828802 -3.057013
v -0.948500 2.563501 2.757588
v 0.305800 2.911901 2.709188
v -1.778900 -0.595398 -0.495413
v -1.783900 1.995702 -3.180713
v -0.306300 -0.506798 -3.262213
v 0.123200 2.912401 0.104688
v 0.242700 2.942101 1.964488
vt 0.030600 0.594700
vt 0.171400 0.484300
vt 0.329500 0.596100
vt 0.601800 0.123700
vt 0.287600 0.291600
vt 0.437600 0.022100
vt 0.622800 0.760800
vt 0.628300 0.669600
vt 0.762200 0.665000
vt 0.960300 0.309600
vt 0.967600 0.425900
vt 0.801500 0.494700
vt 0.884800 0.313000
vt 0.820500 0.312600
vt 0.585900 0.988300
vt 0.321300 0.947300
vt 0.428200 0.821700
vt 0.140300 0.320000
vt 0.030100 0.423600
vt 0.031300 0.315300
vt 0.198900 0.283700
vt 0.160000 0.018100
vt 0.245900 0.021500
vt 0.233800 0.406500
vt 0.443400 0.316000
vt 0.523400 0.315200
vt 0.390900 0.412200
vt 0.511700 0.023800
vt 0.747500 0.966400
vt 0.285800 0.679100
vt 0.595500 0.635900
vt 0.735500 0.313400
vt 0.620400 0.445400
vt 0.976300 0.656000
vt 0.975900 0.764600
vt 0.900500 0.660700
vt 0.472600 0.491500
vt 0.591000 0.598900
vt 0.620800 0.313900
vt 0.030600 0.612400
vt 0.198600 0.617300
vt 0.027000 0.675400
vt 0.029700 0.133700
vt 0.349000 0.022200
vt 0.086200 0.018000
vt 0.029700 0.013700
vt 0.588900 0.832900
vt 0.591500 0.763600
vt 0.597800 0.290900
vt 0.625000 0.923900
vt 0.286600 0.625200
vt 0.687900 0.621700
vt 0.804700 0.643600
vt 0.282900 0.317000
vt 0.592300 0.030000
vt 0.028000 0.558400
vt 0.030200 0.286400
vt 0.975400 0.573900
vt 0.590700 0.449000
vt 0.279500 0.985200
vt 0.011800 0.969600
vt 0.588700 0.317300
vt 0.836600 0.666000
vt 0.271000 0.811700
vt 0.916100 0.608200
vt 0.977700 0.899900
vt 0.969900 0.936200
vt 0.814800 0.977800
vt 0.093400 0.798700
vt 0.014500 0.909700
vt 0.021300 0.791800
vt 0.627600 0.594900
vn -0.9762 0.2103 0.0523
vn -0.9980 0.0625 -0.0035
vn -0.9951 0.0977 0.0153
vn 0.9995 -0.0015 -0.0330
vn 0.9989 0.0215 -0.0424
vn 0.9998 -0.0007 -0.0208
vn -0.0215 -0.0115 -0.9997
vn 0.0369 -0.1026 -0.9940
vn -0.0168 0.0160 -0.9997
vn 0.0827 0.0125 0.9965
vn 0.0652 0.0010 0.9979
vn 0.0354 0.0159 0.9992
vn 0.0781 0.0171 0.9968
vn 0.0253 -0.0026 0.9997
vn -0.3032 0.9520 -0.0411
vn -0.3451 0.9386 -0.0063
vn 0.0115 0.9993 -0.0350
vn -0.9997 0.0041 -0.0227
vn -0.9979 0.0113 -0.0635
vn -0.9976 0.0332 -0.0606
vn 0.9997 -0.0034 -0.0250
vn 1.0000 -0.0066 -0.0035
vn 0.9998 -0.0043 -0.0203
vn -0.9996 -0.0004 0.0298
vn -0.9953 -0.0956 -0.0139
vn -0.9968 -0.0216 0.0766
vn -0.9999 -0.0091 0.0100
vn 0.9989 -0.0195 -0.0415
vn -0.1188 0.0301 -0.9925
vn 0.4101 0.9120 -0.0119
vn 0.3418 0.9394 -0.0252
vn 0.0084 0.0005 1.0000
vn 0.0003 0.0066 1.0000
vn -0.0542 0.0470 -0.9974
vn -0.0151 0.0416 -0.9990
vn -0.0450 0.0534 -0.9976
vn -0.9960 0.0712 0.0539
vn -0.9888 0.1155 0.0944
vn 0.0132 0.0090 0.9999
vn 0.4824 0.8756 -0.0231
vn 0.5448 0.8386 0.0063
vn 0.4125 0.9110 -0.0032
vn 0.9997 -0.0212 0.0091
vn 0.9998 -0.0125 -0.0134
vn 0.9988 -0.0276 0.0414
vn 0.9919 -0.0616 0.1113
vn -0.0577 0.9972 -0.0474
vn 0.2861 0.9579 -0.0233
vn 0.9996 0.0165 -0.0248
vn -0.0204 0.0413 -0.9989
vn 0.5359 0.8442 0.0068
vn 0.0004 0.0222 0.9998
vn 0.0481 0.0376 0.9981
vn -0.9973 -0.0664 0.0328
vn 0.9968 -0.0426 -0.0670
vn -0.9859 0.1625 0.0386
vn 0.9992 -0.0323 -0.0247
vn 0.0558 0.0354 0.9978
vn -0.9915 0.0321 0.1260
vn -0.4412 0.8973 0.0106
vn -0.2747 0.9608 0.0373
vn -0.9905 -0.0008 0.1376
vn -0.0154 0.0608 -0.9980
vn 0.0136 0.9999 -0.0021
vn 0.0510 0.0557 0.9971
vn 0.0622 0.0204 -0.9979
vn 0.0095 0.1278 -0.9918
vn -0.0734 0.0350 -0.9967
vn 0.0104 0.9999 0.0132
vn -0.2637 0.9640 0.0353
vn 0.0380 0.9986 0.0373
vn -0.0298 0.0210 0.9993
usemtl Solid
s 1
f 1/1/1 2/2/2 3/3/3
f 4/4/4 5/5/5 6/6/6
f 4/7/7 7/8/8 8/9/9
f 9/10/10 10/11/11 11/12/12
f 12/13/13 11/12/12 13/14/14
f 1/15/15 14/16/16 15/17/17
f 16/18/18 17/19/19 18/20/20
f 19/21/21 20/22/22 21/23/23
f 22/24/24 3/3/3 2/2/2
f 23/25/25 24/26/26 25/27/27
f 6/6/6 26/28/28 4/4/4
f 4/7/7 8/9/9 27/29/29
f 28/30/30 29/31/31 15/17/17
f 17/19/19 16/18/18 2/2/2
f 30/32/32 11/12/12 31/33/33
f 18/34/34 17/35/35 32/36/36
f 33/37/37 34/38/38 3/3/3
f 31/33/33 35/39/39 30/32/32
f 36/40/40 19/41/41 37/42/42
f 20/22/22 19/21/21 10/43/43
f 19/21/21 21/23/23 38/44/44
f 39/45/45 10/43/43 9/46/46
f 1/15/15 15/17/17 40/47/47
f 15/17/17 29/31/31 27/48/48
f 5/5/5 4/4/4 29/49/49
f 4/7/7 27/29/29 29/50/50
f 28/30/30 5/51/51 29/31/31
f 41/52/52 11/12/12 42/53/53
f 16/18/18 43/54/54 22/24/24
f 26/28/28 7/55/55 4/4/4
f 44/56/56 17/19/19 2/2/2
f 36/57/57 10/43/43 19/21/21
f 10/11/11 36/58/58 11/12/12
f 11/12/12 41/52/52 31/33/33
f 31/59/59 34/38/38 33/37/37
f 1/15/15 3/60/60 14/16/16
f 34/61/61 14/16/16 3/60/60
f 33/37/37 3/3/3 25/27/27
f 27/48/48 40/47/47 15/17/17
f 19/21/21 6/6/6 5/5/5
f 35/62/62 31/59/59 24/26/26
f 10/43/43 39/45/45 20/22/22
f 19/21/21 38/44/44 6/6/6
f 17/35/35 45/63/63 32/36/36
f 11/12/12 30/32/32 13/14/14
f 16/18/18 22/24/24 2/2/2
f 9/10/10 11/12/12 12/13/13
f 14/16/16 46/64/64 15/17/17
f 46/64/64 28/30/30 15/17/17
f 42/53/53 11/12/12 37/65/65
f 36/58/58 37/65/65 11/12/12
f 1/1/1 44/56/56 2/2/2
f 44/66/66 1/67/67 40/68/68
f 25/27/27 3/3/3 22/24/24
f 47/69/69 41/70/70 42/71/71
f 34/72/72 31/33/33 41/52/52
f 14/16/16 34/61/61 41/70/70
f 43/54/54 23/25/25 25/27/27
f 43/54/54 25/27/27 22/24/24
f 8/9/9 40/68/68 27/29/29
f 8/9/9 45/63/63 40/68/68
f 45/63/63 17/35/35 40/68/68
f 17/35/35 44/66/66 40/68/68
f 37/42/42 47/69/69 42/71/71
f 28/30/30 47/69/69 37/42/42
f 28/30/30 46/64/64 47/69/69
f 19/41/41 5/51/51 28/30/30
f 19/41/41 28/30/30 37/42/42
f 24/26/26 31/59/59 33/37/37
f 24/26/26 33/37/37 25/27/27
f 41/70/70 47/69/69 46/64/64
f 41/70/70 46/64/64 14/16/16
