mtllib Motorway_Viaduct_A.mtl
o Motorway_Viaduct_A
v 7.448000 -0.010499 -7.454300
v 7.448000 -0.010499 -4.245000
v 10.596100 -0.050099 -4.245000
v 10.596100 -0.050099 -7.454300
v 10.582900 0.443101 -4.245000
v 10.582900 0.443101 -7.454300
v 10.741000 0.450301 -4.245000
v 10.741000 0.450301 -7.454300
v 10.748200 -0.189599 -4.245000
v 10.748200 -0.189599 -7.454300
v 9.662700 -0.340499 -4.245000
v 9.662700 -0.340499 -7.454300
v 9.669900 -0.807799 -4.245000
v 9.669900 -0.807799 -7.454300
v 5.924400 -1.576999 -4.245000
v 5.924400 -1.576999 -7.454300
v 5.284600 -5.444699 -4.245001
v 5.284600 -5.444698 -7.454301
v 3.897100 -5.466300 -4.245001
v 3.897100 -5.466299 -7.454301
v 3.897100 -5.574100 -4.245001
v 3.897100 -5.574099 -7.454301
v 0.073600 -6.173699 -4.245001
v 0.073600 -6.173698 -7.454301
v -0.086600 -6.173699 -4.245001
v -0.086600 -6.173698 -7.454301
v -3.859800 -5.552499 -4.245001
v -3.859800 -5.552498 -7.454301
v -3.869800 -5.442400 -4.245001
v -3.869800 -5.442399 -7.454301
v -5.297600 -5.423100 -4.245001
v -5.297600 -5.423099 -7.454301
v -5.951800 -1.576999 -4.245000
v -5.951800 -1.576999 -7.454300
v -9.675700 -0.793399 -4.245000
v -9.675700 -0.793399 -7.454300
v -9.697200 -0.340499 -4.245000
v -9.697200 -0.340499 -7.454300
v -10.732500 -0.196699 -4.245000
v -10.732500 -0.196699 -7.454300
v -10.739600 0.435901 -4.245000
v -10.739600 0.435901 -7.454300
v -10.569400 0.427101 -4.245000
v -10.569400 0.427101 -7.454300
v -10.554700 -0.037599 -4.245000
v -10.554700 -0.037599 -7.454300
v -7.462300 -0.035899 -4.245000
v -7.462300 -0.035899 -7.454300
v 7.448000 -0.010500 -1.444300
v 10.596100 -0.050100 -1.444300
v 10.582900 0.443100 -1.444300
v 10.741000 0.450300 -1.444300
v 10.748200 -0.189600 -1.444300
v 9.662700 -0.340500 -1.444300
v 9.669900 -0.807800 -1.444300
v 5.924400 -1.577000 -1.444300
v 5.284600 -5.444700 -1.444301
v 3.897100 -5.466300 -1.444301
v 3.897100 -5.574100 -1.444301
v 0.073600 -6.173700 -1.444301
v -0.086600 -6.173700 -1.444301
v -3.859800 -5.552500 -1.444301
v -3.869800 -5.442400 -1.444301
v -5.297600 -5.423100 -1.444301
v -5.951800 -1.577000 -1.444300
v -9.675700 -0.793400 -1.444300
v -9.697200 -0.340500 -1.444300
v -10.732500 -0.196700 -1.444300
v -10.739600 0.435900 -1.444300
v -10.569400 0.427100 -1.444300
v -10.554700 -0.037600 -1.444300
v -7.462300 -0.035900 -1.444300
v 7.448000 -0.010500 1.560700
v 10.596100 -0.050100 1.560700
v 10.582900 0.443100 1.560700
v 10.741000 0.450300 1.560700
v 10.748200 -0.189600 1.560700
v 9.662700 -0.340500 1.560700
v 9.669900 -0.807800 1.560700
v 5.924400 -1.577000 1.560700
v 5.284600 -5.444700 1.560699
v 3.897100 -5.466300 1.560699
v 3.897100 -5.574100 1.560699
v 0.073600 -6.173700 1.560699
v -0.086600 -6.173700 1.560699
v -3.859800 -5.552500 1.560699
v -3.869800 -5.442400 1.560699
v -5.297600 -5.423100 1.560699
v -5.951800 -1.577000 1.560700
v -9.675700 -0.793400 1.560700
v -9.697200 -0.340500 1.560700
v -10.732500 -0.196700 1.560700
v -10.739600 0.435900 1.560700
v -10.569400 0.427100 1.560700
v -10.554700 -0.037600 1.560700
v -7.462300 -0.035900 1.560700
v 7.448000 -0.010501 4.459600
v 10.596100 -0.050101 4.459600
v 10.582900 0.443099 4.459600
v 10.741000 0.450299 4.459600
v 10.748200 -0.189601 4.459600
v 9.662700 -0.340501 4.459600
v 9.669900 -0.807801 4.459600
v 5.924400 -1.577001 4.459599
v 5.284600 -5.444701 4.459599
v 3.897100 -5.466301 4.459599
v 3.897100 -5.574101 4.459599
v 0.073600 -6.173701 4.459599
v -0.086600 -6.173701 4.459599
v -3.859800 -5.552501 4.459599
v -3.869800 -5.442401 4.459599
v -5.297600 -5.423101 4.459599
v -5.951800 -1.577001 4.459599
v -9.675700 -0.793401 4.459600
v -9.697200 -0.340501 4.459600
v -10.732500 -0.196701 4.459600
v -10.739600 0.435899 4.459600
v -10.569400 0.427099 4.459600
v -10.554700 -0.037601 4.459600
v -7.462300 -0.035901 4.459600
v 7.448000 -0.010501 7.545700
v 10.596100 -0.050101 7.545700
v 10.582900 0.443099 7.545700
v 10.741000 0.450299 7.545700
v 10.748200 -0.189601 7.545700
v 9.662700 -0.340501 7.545700
v 9.669900 -0.807801 7.545700
v 5.924400 -1.577001 7.545700
v 5.284600 -5.444701 7.545699
v 3.897100 -5.466301 7.545699
v 3.897100 -5.574101 7.545699
v 0.073600 -6.173701 7.545699
v -0.086600 -6.173701 7.545699
v -3.859800 -5.552501 7.545699
v -3.869800 -5.442401 7.545699
v -5.297600 -5.423101 7.545699
v -5.951800 -1.577001 7.545700
v -9.675700 -0.793401 7.545700
v -9.697200 -0.340501 7.545700
v -10.732500 -0.196701 7.545700
v -10.739600 0.435899 7.545700
v -10.569400 0.427099 7.545700
v -10.554700 -0.037601 7.545700
v -7.462300 -0.035901 7.545700
vt 0.004120 0.885699
vt 0.003920 0.801400
vt 0.067810 0.801400
vt 0.068010 0.885699
vt 0.068010 0.801200
vt 0.078600 0.801200
vt 0.078600 0.885699
vt 0.081900 0.801200
vt 0.081900 0.885699
vt 0.095000 0.801200
vt 0.095000 0.885699
vt 0.095000 0.801300
vt 0.117380 0.801300
vt 0.117380 0.885699
vt 0.117380 0.801200
vt 0.127010 0.801200
vt 0.127010 0.885699
vt 0.126810 0.801400
vt 0.205120 0.801400
vt 0.205320 0.885699
vt 0.285320 0.801400
vt 0.285520 0.885699
vt 0.285420 0.801300
vt 0.313890 0.801300
vt 0.313890 0.885699
vt 0.313890 0.801200
vt 0.316110 0.801200
vt 0.316110 0.885699
vt 0.315910 0.801400
vt 0.396500 0.801400
vt 0.396800 0.885699
vt 0.396800 0.801200
vt 0.400000 0.801200
vt 0.400000 0.885699
vt 0.399800 0.801400
vt 0.476710 0.801400
vt 0.476910 0.885699
vt 0.476910 0.801200
vt 0.479100 0.801200
vt 0.479100 0.885699
vt 0.479800 0.801300
vt 0.508410 0.801300
vt 0.508410 0.885699
vt 0.508210 0.801400
vt 0.584320 0.801400
vt 0.584520 0.885699
vt 0.665910 0.801400
vt 0.666110 0.885699
vt 0.666110 0.801200
vt 0.675400 0.801200
vt 0.675400 0.885699
vt 0.675400 0.801300
vt 0.696800 0.801300
vt 0.696800 0.885699
vt 0.696800 0.801200
vt 0.709800 0.801200
vt 0.709800 0.885699
vt 0.713200 0.801200
vt 0.713200 0.885699
vt 0.722820 0.801200
vt 0.722820 0.885699
vt 0.722620 0.801400
vt 0.785920 0.801400
vt 0.786120 0.885699
vt 0.004120 0.728800
vt 0.068010 0.728800
vt 0.078600 0.728800
vt 0.081900 0.728800
vt 0.095000 0.728800
vt 0.117380 0.728800
vt 0.127010 0.728800
vt 0.205320 0.728800
vt 0.285520 0.728800
vt 0.313890 0.728800
vt 0.316110 0.728800
vt 0.396800 0.728800
vt 0.400000 0.728800
vt 0.476910 0.728800
vt 0.479100 0.728800
vt 0.508410 0.728800
vt 0.584520 0.728800
vt 0.666110 0.728800
vt 0.675400 0.728800
vt 0.696800 0.728800
vt 0.709800 0.728800
vt 0.713200 0.728800
vt 0.722820 0.728800
vt 0.786120 0.728800
vt 0.004120 0.651200
vt 0.068010 0.651200
vt 0.078600 0.651200
vt 0.081900 0.651200
vt 0.095000 0.651200
vt 0.117380 0.651200
vt 0.127010 0.651200
vt 0.205320 0.651200
vt 0.285520 0.651200
vt 0.313890 0.651200
vt 0.316110 0.651200
vt 0.396800 0.651200
vt 0.400000 0.651200
vt 0.476910 0.651200
vt 0.479100 0.651200
vt 0.508410 0.651200
vt 0.584520 0.651200
vt 0.666110 0.651200
vt 0.675400 0.651200
vt 0.696800 0.651200
vt 0.709800 0.651200
vt 0.713200 0.651200
vt 0.722820 0.651200
vt 0.786120 0.651200
vt 0.004220 0.576200
vt 0.068110 0.576200
vt 0.068010 0.576300
vt 0.078600 0.576300
vt 0.081900 0.576300
vt 0.095000 0.576300
vt 0.095000 0.576200
vt 0.117480 0.576200
vt 0.117480 0.576300
vt 0.127010 0.576300
vt 0.127110 0.576200
vt 0.205420 0.576200
vt 0.285620 0.576200
vt 0.285520 0.576200
vt 0.313990 0.576200
vt 0.313890 0.576300
vt 0.316110 0.576300
vt 0.316210 0.576200
vt 0.396900 0.576200
vt 0.396800 0.576300
vt 0.400000 0.576300
vt 0.400100 0.576200
vt 0.477010 0.576200
vt 0.476910 0.576300
vt 0.479100 0.576300
vt 0.479100 0.576200
vt 0.508410 0.576200
vt 0.508510 0.576200
vt 0.584620 0.576200
vt 0.666210 0.576200
vt 0.666110 0.576300
vt 0.675400 0.576300
vt 0.675400 0.576200
vt 0.696800 0.576200
vt 0.696800 0.576300
vt 0.709800 0.576300
vt 0.713200 0.576300
vt 0.722820 0.576300
vt 0.722820 0.576200
vt 0.786220 0.576200
vt 0.004120 0.494700
vt 0.068010 0.494700
vt 0.078600 0.494700
vt 0.081900 0.494700
vt 0.095000 0.494700
vt 0.117380 0.494700
vt 0.127010 0.494700
vt 0.205320 0.494700
vt 0.285520 0.494700
vt 0.313890 0.494700
vt 0.316110 0.494700
vt 0.396800 0.494700
vt 0.400000 0.494700
vt 0.476910 0.494700
vt 0.479100 0.494700
vt 0.508410 0.494700
vt 0.584520 0.494700
vt 0.666110 0.494700
vt 0.675400 0.494700
vt 0.696800 0.494700
vt 0.709800 0.494700
vt 0.713200 0.494700
vt 0.722820 0.494700
vt 0.786120 0.494700
vt 0.784400 0.987300
vt 0.790200 0.987600
vt 0.784900 0.969400
vt 0.790400 0.964300
vt 0.750900 0.958800
vt 0.751100 0.941800
vt 0.670200 0.970800
vt 0.614700 0.913800
vt 0.182200 0.913800
vt 0.007800 0.987100
vt 0.014500 0.969800
vt 0.008000 0.964000
vt 0.014000 0.986800
vt 0.045700 0.958800
vt 0.127100 0.969900
vt 0.046500 0.942300
vt 0.784400 0.987300
vt 0.784900 0.969400
vt 0.790200 0.987600
vt 0.790400 0.964300
vt 0.750900 0.958800
vt 0.670200 0.970800
vt 0.751100 0.941800
vt 0.614700 0.913800
vt 0.182200 0.913800
vt 0.007800 0.987100
vt 0.008000 0.964000
vt 0.014500 0.969800
vt 0.014000 0.986800
vt 0.045700 0.958800
vt 0.127100 0.969900
vt 0.046500 0.942300
vn 0.0126 0.9999 0.0000
vn -0.9996 -0.0268 -0.0000
vn -0.0455 0.9990 0.0000
vn 0.9999 0.0113 0.0000
vn 0.1377 -0.9905 -0.0000
vn 0.9999 0.0154 0.0000
vn 0.2012 -0.9796 -0.0000
vn 0.9866 -0.1632 -0.0000
vn 0.0156 -0.9999 -0.0000
vn 1.0000 0.0000 0.0000
vn 0.1549 -0.9879 -0.0000
vn 0.0000 -1.0000 -0.0000
vn -0.1624 -0.9867 0.0000
vn -0.9959 -0.0905 -0.0000
vn -0.0135 -0.9999 -0.0000
vn -0.9858 -0.1677 -0.0000
vn -0.2059 -0.9786 -0.0000
vn -0.9989 -0.0478 0.0000
vn -0.9989 -0.0474 -0.0000
vn -0.1376 -0.9905 -0.0000
vn -0.9999 -0.0112 -0.0000
vn 0.0513 0.9987 0.0000
vn 0.0512 0.9987 0.0000
vn 0.9995 0.0316 0.0000
vn -0.0005 1.0000 0.0000
vn 0.0516 0.9987 0.0000
vn -0.9959 -0.0904 -0.0000
vn 0.0511 0.9987 0.0000
vn 0.0000 0.0000 -1.0000
vn 0.0000 0.0000 1.0000
usemtl Material__75
s 1
f 1/1/1 2/2/1 3/3/1
f 1/1/1 3/3/1 4/4/1
f 4/4/2 3/5/2 5/6/2
f 4/4/2 5/6/2 6/7/2
f 6/7/3 5/6/3 7/8/3
f 6/7/3 7/8/3 8/9/3
f 8/9/4 7/8/4 9/10/4
f 8/9/4 9/10/4 10/11/4
f 10/11/5 9/12/5 11/13/5
f 10/11/5 11/13/5 12/14/5
f 12/14/6 11/15/6 13/16/6
f 12/14/6 13/16/6 14/17/6
f 14/17/7 13/18/7 15/19/7
f 14/17/7 15/19/7 16/20/7
f 16/20/8 15/19/8 17/21/8
f 16/20/8 17/21/8 18/22/8
f 18/22/9 17/23/9 19/24/9
f 18/22/9 19/24/9 20/25/9
f 20/25/10 19/26/10 21/27/10
f 20/25/10 21/27/10 22/28/10
f 22/28/11 21/29/11 23/30/11
f 22/28/11 23/30/11 24/31/11
f 24/31/12 23/32/12 25/33/12
f 24/31/12 25/33/12 26/34/12
f 26/34/13 25/35/13 27/36/13
f 26/34/13 27/36/13 28/37/13
f 28/37/14 27/38/14 29/39/14
f 28/37/14 29/39/14 30/40/14
f 30/40/15 29/41/15 31/42/15
f 30/40/15 31/42/15 32/43/15
f 32/43/16 31/44/16 33/45/16
f 32/43/16 33/45/16 34/46/16
f 34/46/17 33/45/17 35/47/17
f 34/46/17 35/47/17 36/48/17
f 36/48/18 35/49/19 37/50/19
f 36/48/18 37/50/19 38/51/19
f 38/51/20 37/52/20 39/53/20
f 38/51/20 39/53/20 40/54/20
f 40/54/21 39/55/21 41/56/21
f 40/54/21 41/56/21 42/57/21
f 42/57/22 41/56/23 43/58/22
f 42/57/22 43/58/22 44/59/22
f 44/59/24 43/58/24 45/60/24
f 44/59/24 45/60/24 46/61/24
f 46/61/25 45/62/25 47/63/25
f 46/61/25 47/63/25 48/64/25
f 2/2/1 49/65/1 50/66/1
f 2/2/1 50/66/1 3/3/1
f 3/5/2 50/66/2 51/67/2
f 3/5/2 51/67/2 5/6/2
f 5/6/3 51/67/3 52/68/3
f 5/6/3 52/68/3 7/8/3
f 7/8/4 52/68/4 53/69/4
f 7/8/4 53/69/4 9/10/4
f 9/12/5 53/69/5 54/70/5
f 9/12/5 54/70/5 11/13/5
f 11/15/6 54/70/6 55/71/6
f 11/15/6 55/71/6 13/16/6
f 13/18/7 55/71/7 56/72/7
f 13/18/7 56/72/7 15/19/7
f 15/19/8 56/72/8 57/73/8
f 15/19/8 57/73/8 17/21/8
f 17/23/9 57/73/9 58/74/9
f 17/23/9 58/74/9 19/24/9
f 19/26/10 58/74/10 59/75/10
f 19/26/10 59/75/10 21/27/10
f 21/29/11 59/75/11 60/76/11
f 21/29/11 60/76/11 23/30/11
f 23/32/12 60/76/12 61/77/12
f 23/32/12 61/77/12 25/33/12
f 25/35/13 61/77/13 62/78/13
f 25/35/13 62/78/13 27/36/13
f 27/38/14 62/78/14 63/79/14
f 27/38/14 63/79/14 29/39/14
f 29/41/15 63/79/15 64/80/15
f 29/41/15 64/80/15 31/42/15
f 31/44/16 64/80/16 65/81/16
f 31/44/16 65/81/16 33/45/16
f 33/45/17 65/81/17 66/82/17
f 33/45/17 66/82/17 35/47/17
f 35/49/19 66/82/18 67/83/18
f 35/49/19 67/83/18 37/50/19
f 37/52/20 67/83/20 68/84/20
f 37/52/20 68/84/20 39/53/20
f 39/55/21 68/84/21 69/85/21
f 39/55/21 69/85/21 41/56/21
f 41/56/23 69/85/26 70/86/23
f 41/56/23 70/86/23 43/58/22
f 43/58/24 70/86/24 71/87/24
f 43/58/24 71/87/24 45/60/24
f 45/62/25 71/87/25 72/88/25
f 45/62/25 72/88/25 47/63/25
f 49/65/1 73/89/1 74/90/1
f 49/65/1 74/90/1 50/66/1
f 50/66/2 74/90/2 75/91/2
f 50/66/2 75/91/2 51/67/2
f 51/67/3 75/91/3 76/92/3
f 51/67/3 76/92/3 52/68/3
f 52/68/4 76/92/4 77/93/4
f 52/68/4 77/93/4 53/69/4
f 53/69/5 77/93/5 78/94/5
f 53/69/5 78/94/5 54/70/5
f 54/70/6 78/94/6 79/95/6
f 54/70/6 79/95/6 55/71/6
f 55/71/7 79/95/7 80/96/7
f 55/71/7 80/96/7 56/72/7
f 56/72/8 80/96/8 81/97/8
f 56/72/8 81/97/8 57/73/8
f 57/73/9 81/97/9 82/98/9
f 57/73/9 82/98/9 58/74/9
f 58/74/10 82/98/10 83/99/10
f 58/74/10 83/99/10 59/75/10
f 59/75/11 83/99/11 84/100/11
f 59/75/11 84/100/11 60/76/11
f 60/76/12 84/100/12 85/101/12
f 60/76/12 85/101/12 61/77/12
f 61/77/13 85/101/13 86/102/13
f 61/77/13 86/102/13 62/78/13
f 62/78/14 86/102/14 87/103/14
f 62/78/14 87/103/14 63/79/14
f 63/79/15 87/103/15 88/104/15
f 63/79/15 88/104/15 64/80/15
f 64/80/16 88/104/16 89/105/16
f 64/80/16 89/105/16 65/81/16
f 65/81/17 89/105/17 90/106/17
f 65/81/17 90/106/17 66/82/17
f 66/82/18 90/106/19 91/107/19
f 66/82/18 91/107/19 67/83/18
f 67/83/20 91/107/20 92/108/20
f 67/83/20 92/108/20 68/84/20
f 68/84/21 92/108/21 93/109/21
f 68/84/21 93/109/21 69/85/21
f 69/85/26 93/109/22 94/110/26
f 69/85/26 94/110/26 70/86/23
f 70/86/24 94/110/24 95/111/24
f 70/86/24 95/111/24 71/87/24
f 71/87/25 95/111/25 96/112/25
f 71/87/25 96/112/25 72/88/25
f 73/89/1 97/113/1 98/114/1
f 73/89/1 98/114/1 74/90/1
f 74/90/2 98/115/2 99/116/2
f 74/90/2 99/116/2 75/91/2
f 75/91/3 99/116/3 100/117/3
f 75/91/3 100/117/3 76/92/3
f 76/92/4 100/117/4 101/118/4
f 76/92/4 101/118/4 77/93/4
f 77/93/5 101/119/5 102/120/5
f 77/93/5 102/120/5 78/94/5
f 78/94/6 102/121/6 103/122/6
f 78/94/6 103/122/6 79/95/6
f 79/95/7 103/123/7 104/124/7
f 79/95/7 104/124/7 80/96/7
f 80/96/8 104/124/8 105/125/8
f 80/96/8 105/125/8 81/97/8
f 81/97/9 105/126/9 106/127/9
f 81/97/9 106/127/9 82/98/9
f 82/98/10 106/128/10 107/129/10
f 82/98/10 107/129/10 83/99/10
f 83/99/11 107/130/11 108/131/11
f 83/99/11 108/131/11 84/100/11
f 84/100/12 108/132/12 109/133/12
f 84/100/12 109/133/12 85/101/12
f 85/101/13 109/134/13 110/135/13
f 85/101/13 110/135/13 86/102/13
f 86/102/14 110/136/14 111/137/14
f 86/102/14 111/137/14 87/103/14
f 87/103/15 111/138/15 112/139/15
f 87/103/15 112/139/15 88/104/15
f 88/104/16 112/140/16 113/141/16
f 88/104/16 113/141/16 89/105/16
f 89/105/17 113/141/17 114/142/17
f 89/105/17 114/142/17 90/106/17
f 90/106/19 114/143/19 115/144/18
f 90/106/19 115/144/18 91/107/19
f 91/107/20 115/145/20 116/146/20
f 91/107/20 116/146/20 92/108/20
f 92/108/21 116/147/21 117/148/21
f 92/108/21 117/148/21 93/109/21
f 93/109/22 117/148/23 118/149/23
f 93/109/22 118/149/23 94/110/26
f 94/110/24 118/149/24 119/150/24
f 94/110/24 119/150/24 95/111/24
f 95/111/25 119/151/25 120/152/25
f 95/111/25 120/152/25 96/112/25
f 97/113/1 121/153/1 122/154/1
f 97/113/1 122/154/1 98/114/1
f 98/115/2 122/154/2 123/155/2
f 98/115/2 123/155/2 99/116/2
f 99/116/3 123/155/3 124/156/3
f 99/116/3 124/156/3 100/117/3
f 100/117/4 124/156/4 125/157/4
f 100/117/4 125/157/4 101/118/4
f 101/119/5 125/157/5 126/158/5
f 101/119/5 126/158/5 102/120/5
f 102/121/6 126/158/6 127/159/6
f 102/121/6 127/159/6 103/122/6
f 103/123/7 127/159/7 128/160/7
f 103/123/7 128/160/7 104/124/7
f 104/124/8 128/160/8 129/161/8
f 104/124/8 129/161/8 105/125/8
f 105/126/9 129/161/9 130/162/9
f 105/126/9 130/162/9 106/127/9
f 106/128/10 130/162/10 131/163/10
f 106/128/10 131/163/10 107/129/10
f 107/130/11 131/163/11 132/164/11
f 107/130/11 132/164/11 108/131/11
f 108/132/12 132/164/12 133/165/12
f 108/132/12 133/165/12 109/133/12
f 109/134/13 133/165/13 134/166/13
f 109/134/13 134/166/13 110/135/13
f 110/136/27 134/166/27 135/167/27
f 110/136/14 135/167/14 111/137/14
f 111/138/15 135/167/15 136/168/15
f 111/138/15 136/168/15 112/139/15
f 112/140/16 136/168/16 137/169/16
f 112/140/16 137/169/16 113/141/16
f 113/141/17 137/169/17 138/170/17
f 113/141/17 138/170/17 114/142/17
f 114/143/19 138/170/18 139/171/19
f 114/143/19 139/171/19 115/144/18
f 115/145/20 139/171/20 140/172/20
f 115/145/20 140/172/20 116/146/20
f 116/147/21 140/172/21 141/173/21
f 116/147/21 141/173/21 117/148/21
f 117/148/23 141/173/23 142/174/28
f 117/148/23 142/174/28 118/149/23
f 118/149/24 142/174/24 143/175/24
f 118/149/24 143/175/24 119/150/24
f 119/151/25 143/175/25 144/176/25
f 119/151/25 144/176/25 120/152/25
f 6/177/29 8/178/29 4/179/29
f 8/178/29 10/180/29 4/179/29
f 12/181/29 14/182/29 1/183/29
f 14/182/29 16/184/29 1/183/29
f 16/184/29 34/185/29 1/183/29
f 42/186/29 46/187/29 40/188/29
f 44/189/29 46/187/29 42/186/29
f 40/188/29 46/187/29 38/190/29
f 34/185/29 48/191/29 1/183/29
f 36/192/29 48/191/29 34/185/29
f 38/190/29 48/191/29 36/192/29
f 1/183/29 4/179/29 12/181/29
f 10/180/29 12/181/29 4/179/29
f 46/187/29 48/191/29 38/190/29
f 123/193/30 122/194/30 124/195/30
f 124/195/30 122/194/30 125/196/30
f 126/197/30 121/198/30 127/199/30
f 127/199/30 121/198/30 128/200/30
f 128/200/30 121/198/30 137/201/30
f 141/202/30 140/203/30 143/204/30
f 142/205/30 141/202/30 143/204/30
f 140/203/30 139/206/30 143/204/30
f 137/201/30 121/198/30 144/207/30
f 138/208/30 137/201/30 144/207/30
f 139/206/30 138/208/30 144/207/30
f 121/198/30 126/197/30 122/194/30
f 125/196/30 122/194/30 126/197/30
f 143/204/30 139/206/30 144/207/30
