
#
# object bridge_01_exitSign
#

v  -17.9679 32.6637 -3.1524
v  -12.7213 36.4974 -0.5941
v  -7.6545 38.2107 0.6801
v  -2.5954 39.0518 1.0739
v  2.4641 39.0520 1.0383
v  7.5223 38.3661 0.6217
v  12.5769 36.6556 -0.6914
v  17.7181 32.8671 -3.2897
v  -18.6425 33.1156 -6.1691
v  -13.1974 36.9894 -3.6115
v  -7.9442 38.7197 -2.3381
v  -2.6944 39.4143 -1.9611
v  2.5539 39.4143 -1.9813
v  7.8007 38.7215 -2.3987
v  13.0440 36.9894 -3.7125
v  18.3671 33.1751 -6.3115
v  -22.8642 0.2063 -7.0530
v  -2.5955 0.3573 1.0578
v  2.4641 0.3573 1.0383
v  12.5769 0.3245 -0.7066
v  22.6745 0.3572 -6.5030
v  23.5193 0.3004 -9.2776
v  23.0887 0.3004 -9.5238
v  -23.1842 0.3004 -8.8253
v  -23.7152 0.3004 -9.0957
v  -22.8634 19.2757 -6.3278
v  -12.7213 0.1409 -0.6089
v  -7.6565 0.1409 0.6929
v  -2.5955 0.2918 1.0578
v  2.4641 0.2918 1.0383
v  7.5224 0.2918 0.6341
v  22.6645 19.4265 -6.5029
v  23.5183 19.5766 -9.5255
v  23.0887 19.5766 -9.5178
v  -23.0478 19.5766 -9.0284
v  -23.7173 19.5766 -9.3438
v  -22.2666 23.2165 -5.8095
v  22.6744 23.3673 -6.5029
v  23.5183 23.5601 -9.5255
v  -23.0984 23.5601 -8.8257
v  -21.2291 27.5089 -5.0252
v  21.3413 27.6949 -5.1890
v  22.1251 27.9346 -8.2114
v  -22.0223 27.8990 -8.0415
v  13.0407 36.6143 -3.7241
v  7.5087 38.3271 -2.3777
v  2.4516 38.9774 -1.9809
v  -2.6478 38.9979 -1.9613
v  -7.9441 38.1215 -2.3191
v  -13.1974 36.3895 -3.5947
v  -17.9854 -0.0340 -3.1434
v  -21.2082 -0.0340 -5.0483
v  -22.3069 -0.0341 -5.8322
v  17.7732 0.1168 -3.2538
v  21.4321 0.1168 -5.1815
v  21.7807 27.8360 -8.2100
v  23.0314 23.4601 -9.5236
v  18.0932 33.0284 -6.3104
v  -18.1856 32.7775 -6.1708
v  -21.5576 27.6554 -8.0433
v  -22.5837 23.3989 -8.7245
v  21.7871 0.1168 -8.2366
v  18.1201 0.1168 -6.3447
v  12.9857 0.1168 -3.7937
v  7.7654 0.1168 -2.3854
v  2.5003 0.1168 -1.9977
v  -2.6030 0.1168 -1.9371
v  -7.9116 0.1168 -2.2433
v  -13.1428 0.1168 -3.6521
v  -18.2561 0.1168 -6.2454
v  -21.6110 0.1168 -8.1105
# 71 vertices

vn -0.7321 0.6310 0.2566
vn -0.4704 0.8569 0.2108
vn -0.5359 0.8146 0.2220
vn -0.7806 0.5685 0.2597
vn -0.4704 0.8569 0.2108
vn -0.2417 0.9548 0.1732
vn -0.2630 0.9464 0.1877
vn -0.5359 0.8146 0.2220
vn -0.2417 0.9548 0.1732
vn -0.0828 0.9892 0.1210
vn -0.0839 0.9879 0.1307
vn -0.2630 0.9464 0.1877
vn -0.0828 0.9892 0.1210
vn 0.0680 0.9902 0.1219
vn 0.0730 0.9900 0.1209
vn -0.0839 0.9879 0.1307
vn 0.0680 0.9902 0.1219
vn 0.2310 0.9633 0.1368
vn 0.2568 0.9569 0.1353
vn 0.0730 0.9900 0.1209
vn 0.2310 0.9633 0.1368
vn 0.4635 0.8694 0.1712
vn 0.5298 0.8306 0.1717
vn 0.2568 0.9569 0.1353
vn 0.4635 0.8694 0.1712
vn 0.7256 0.6512 0.2222
vn 0.7716 0.5942 0.2270
vn 0.5298 0.8306 0.1717
vn -0.0039 0.0000 -1.0000
vn -0.0416 0.0000 -0.9991
vn -0.0418 0.0000 -0.9991
vn -0.0039 0.0000 -1.0000
vn -0.0797 0.0000 -0.9968
vn -0.0418 0.0000 -0.9991
vn -0.0416 0.0000 -0.9991
vn -0.3437 -0.0000 0.9391
vn -0.1622 -0.0000 0.9868
vn -0.1481 0.0001 0.9890
vn -0.3120 -0.0001 0.9501
vn -0.1622 -0.0000 0.9868
vn -0.0343 -0.0002 0.9994
vn -0.0328 -0.0001 0.9995
vn -0.1481 0.0001 0.9890
vn -0.0343 -0.0002 0.9994
vn 0.0419 0.0001 0.9991
vn 0.0428 -0.0002 0.9991
vn -0.0328 -0.0001 0.9995
vn 0.0419 0.0001 0.9991
vn 0.1683 -0.0000 0.9857
vn 0.1544 0.0001 0.9880
vn 0.0428 -0.0002 0.9991
vn 0.1683 -0.0000 0.9857
vn 0.3515 0.0006 0.9362
vn 0.3219 0.0000 0.9468
vn 0.1544 0.0001 0.9880
vn 0.4538 0.0003 0.8911
vn 0.3219 0.0000 0.9468
vn 0.3515 0.0006 0.9362
vn 0.8618 0.0019 0.5073
vn 0.9567 0.0038 0.2912
vn 0.7909 -0.0057 -0.6119
vn 0.8761 -0.0010 0.4822
vn 0.8761 -0.0010 0.4822
vn 0.7909 -0.0057 -0.6119
vn 0.9566 0.0988 0.2741
vn 0.8753 0.0668 0.4789
vn 0.8753 0.0668 0.4789
vn 0.9566 0.0988 0.2741
vn 0.9059 0.3308 0.2645
vn 0.8848 0.3890 0.2564
vn 0.8848 0.3890 0.2564
vn 0.9059 0.3308 0.2645
vn 0.7716 0.5942 0.2270
vn 0.7256 0.6512 0.2222
vn 0.4901 0.0001 -0.8717
vn 0.4964 0.0003 -0.8681
vn -0.0137 -0.0072 -0.9999
vn 0.7909 -0.0057 -0.6119
vn 0.4322 -0.0120 -0.9017
vn 0.4538 -0.0114 -0.8910
vn 0.4264 0.0174 -0.9044
vn 0.4774 0.0111 -0.8786
vn 0.4774 0.0111 -0.8786
vn 0.4264 0.0174 -0.9044
vn 0.2317 0.0870 -0.9689
vn -0.3406 0.0191 -0.9400
vn -0.1362 0.0219 -0.9904
vn -0.1611 0.0649 -0.9848
vn -0.3021 0.0368 -0.9525
vn -0.1362 0.0219 -0.9904
vn -0.0377 0.0040 -0.9993
vn -0.0440 0.0090 -0.9990
vn -0.1611 0.0649 -0.9848
vn -0.0377 0.0040 -0.9993
vn 0.0313 0.0014 -0.9995
vn 0.0345 0.0044 -0.9994
vn -0.0440 0.0090 -0.9990
vn 0.0313 0.0014 -0.9995
vn 0.1563 -0.0162 -0.9876
vn 0.1468 -0.0303 -0.9887
vn 0.0345 0.0044 -0.9994
vn 0.1563 -0.0162 -0.9876
vn 0.3417 -0.0088 -0.9398
vn 0.3143 -0.0266 -0.9490
vn 0.1468 -0.0303 -0.9887
vn 0.2068 0.2696 -0.9405
vn 0.3143 -0.0266 -0.9490
vn 0.3417 -0.0088 -0.9398
vn -0.9277 -0.0128 0.3730
vn -0.9168 -0.0151 0.3990
vn -0.8515 0.0300 0.5235
vn -0.9594 0.0573 0.2762
vn -0.9594 0.0573 0.2762
vn -0.8515 0.0300 0.5235
vn -0.9491 0.1455 0.2794
vn -0.9500 0.1443 0.2767
vn -0.9500 0.1443 0.2767
vn -0.9491 0.1455 0.2794
vn -0.9014 0.3291 0.2812
vn -0.9136 0.2988 0.2757
vn -0.9136 0.2988 0.2757
vn -0.9014 0.3291 0.2812
vn -0.7321 0.6310 0.2566
vn -0.7806 0.5685 0.2597
vn 0.4538 0.0003 0.8911
vn 0.3515 0.0006 0.9362
vn 0.4534 0.0017 0.8913
vn 0.4538 0.0003 0.8911
vn 0.4534 0.0017 0.8913
vn 0.5994 0.0012 0.8004
vn 0.4538 0.0003 0.8911
vn 0.5994 0.0012 0.8004
vn 0.5028 0.0019 0.8644
vn 0.5028 0.0019 0.8644
vn 0.5994 0.0012 0.8004
vn 0.8753 0.0668 0.4789
vn 0.8753 0.0668 0.4789
vn 0.5994 0.0012 0.8004
vn 0.8761 -0.0010 0.4822
vn 0.8761 -0.0010 0.4822
vn 0.5994 0.0012 0.8004
vn 0.8618 0.0019 0.5073
vn -0.3120 -0.0001 0.9501
vn -0.4524 0.0002 0.8918
vn -0.4723 0.0001 0.8814
vn -0.3120 -0.0001 0.9501
vn -0.4723 0.0001 0.8814
vn -0.3437 -0.0000 0.9391
vn -0.4524 0.0002 0.8918
vn -0.5079 -0.0010 0.8614
vn -0.5449 -0.0004 0.8385
vn -0.4524 0.0002 0.8918
vn -0.5449 -0.0004 0.8385
vn -0.4723 0.0001 0.8814
vn -0.5079 -0.0010 0.8614
vn -0.7588 -0.0080 0.6512
vn -0.5449 -0.0004 0.8385
vn -0.5079 -0.0010 0.8614
vn -0.6073 0.0003 0.7945
vn -0.7588 -0.0080 0.6512
vn -0.6073 0.0003 0.7945
vn -0.8515 0.0300 0.5235
vn -0.7588 -0.0080 0.6512
vn -0.8515 0.0300 0.5235
vn -0.9168 -0.0151 0.3990
vn -0.7588 -0.0080 0.6512
vn 0.2317 0.0870 -0.9689
vn 0.3806 0.0451 -0.9236
vn 0.4774 0.0111 -0.8786
vn 0.1095 0.2023 -0.9732
vn 0.3806 0.0451 -0.9236
vn 0.2317 0.0870 -0.9689
vn 0.1095 0.2023 -0.9732
vn 0.2813 0.1128 -0.9530
vn 0.3806 0.0451 -0.9236
vn 0.2068 0.2696 -0.9405
vn 0.3277 0.1611 -0.9309
vn 0.2813 0.1128 -0.9530
vn 0.2068 0.2696 -0.9405
vn 0.2813 0.1128 -0.9530
vn 0.1095 0.2023 -0.9732
vn 0.3417 -0.0088 -0.9398
vn 0.3277 0.1611 -0.9309
vn 0.2068 0.2696 -0.9405
vn -0.0336 0.1416 -0.9893
vn 0.7909 -0.0057 -0.6119
vn -0.0316 0.1324 -0.9907
vn -0.0316 0.1324 -0.9907
vn 0.7909 -0.0057 -0.6119
vn -0.0137 -0.0072 -0.9999
vn -0.0819 0.2729 -0.9585
vn -0.0336 0.1416 -0.9893
vn -0.2782 0.1565 -0.9477
vn -0.2782 0.1565 -0.9477
vn -0.0336 0.1416 -0.9893
vn -0.0316 0.1324 -0.9907
vn -0.1600 0.2942 -0.9423
vn -0.0819 0.2729 -0.9585
vn -0.2782 0.1565 -0.9477
vn -0.1600 0.2942 -0.9423
vn -0.2782 0.1565 -0.9477
vn -0.3074 0.1734 -0.9356
vn -0.3021 0.0368 -0.9525
vn -0.3074 0.1734 -0.9356
vn -0.3406 0.0191 -0.9400
vn -0.3021 0.0368 -0.9525
vn -0.1600 0.2942 -0.9423
vn -0.3074 0.1734 -0.9356
vn -0.6216 -0.0100 -0.7832
vn -0.7032 0.0002 -0.7110
vn -0.5836 0.0004 -0.8120
vn -0.7203 0.0002 -0.6936
vn -0.6216 -0.0100 -0.7832
vn -0.5836 0.0004 -0.8120
vn -0.2782 0.1565 -0.9477
vn -0.7203 0.0002 -0.6936
vn -0.5836 0.0004 -0.8120
vn -0.3074 0.1734 -0.9356
vn -0.2782 0.1565 -0.9477
vn -0.5836 0.0004 -0.8120
vn -0.3074 0.1734 -0.9356
vn -0.5836 0.0004 -0.8120
vn -0.4523 0.0014 -0.8919
vn -0.3406 0.0191 -0.9400
vn -0.3074 0.1734 -0.9356
vn -0.4523 0.0014 -0.8919
vn -0.3406 0.0191 -0.9400
vn -0.4523 0.0014 -0.8919
vn -0.3533 0.0006 -0.9355
vn -0.1362 0.0219 -0.9904
vn -0.3406 0.0191 -0.9400
vn -0.3533 0.0006 -0.9355
vn -0.1362 0.0219 -0.9904
vn -0.3533 0.0006 -0.9355
vn -0.1683 -0.0006 -0.9857
vn -0.1362 0.0219 -0.9904
vn -0.1683 -0.0006 -0.9857
vn -0.0377 0.0040 -0.9993
vn -0.0377 0.0040 -0.9993
vn -0.1683 -0.0006 -0.9857
vn -0.0424 -0.0001 -0.9991
vn 0.0313 0.0014 -0.9995
vn -0.0377 0.0040 -0.9993
vn -0.0424 -0.0001 -0.9991
vn -0.0424 -0.0001 -0.9991
vn 0.0233 -0.0012 -0.9997
vn 0.0313 0.0014 -0.9995
vn 0.1563 -0.0162 -0.9876
vn 0.0313 0.0014 -0.9995
vn 0.0233 -0.0012 -0.9997
vn 0.1596 -0.0018 -0.9872
vn 0.1563 -0.0162 -0.9876
vn 0.1596 -0.0018 -0.9872
vn 0.3570 0.0004 -0.9341
vn 0.3417 -0.0088 -0.9398
vn 0.3417 -0.0088 -0.9398
vn 0.3570 0.0004 -0.9341
vn 0.4695 0.0015 -0.8829
vn 0.3277 0.1611 -0.9309
vn 0.3277 0.1611 -0.9309
vn 0.4695 0.0015 -0.8829
vn 0.4548 -0.0052 -0.8906
vn 0.2813 0.1128 -0.9530
vn 0.2813 0.1128 -0.9530
vn 0.4548 -0.0052 -0.8906
vn 0.3806 0.0451 -0.9236
vn 0.3806 0.0451 -0.9236
vn 0.4548 -0.0052 -0.8906
vn 0.4774 0.0111 -0.8786
vn 0.4774 0.0111 -0.8786
vn 0.4548 -0.0052 -0.8906
vn 0.4322 -0.0120 -0.9017
# 272 vertex normals

vt 0.1305 0.3603 0.6729
vt 0.1705 0.3666 0.7107
vt 0.2104 0.3666 0.7107
vt 0.2503 0.3603 0.6729
vt 0.2903 0.3444 0.5498
vt 0.1711 0.0095 0.9980
vt 0.2096 0.0095 0.9980
vt 0.2096 0.0089 0.9980
vt 0.1711 0.0089 0.9980
vt 0.2481 0.0089 0.9614
vt 0.3701 0.0089 0.0241
vt 0.3668 0.0089 0.0005
vt 0.3668 0.1852 0.0011
vt 0.3701 0.1852 0.0005
vt 0.0148 0.0089 0.0500
vt 0.0108 0.0089 0.0241
vt 0.0108 0.1852 0.0005
vt 0.0158 0.1852 0.0307
vt 0.0155 0.2216 0.0500
vt 0.2902 0.3410 0.5487
vt 0.2481 0.3567 0.6748
vt 0.2096 0.3626 0.7107
vt 0.1708 0.3628 0.7107
vt 0.1305 0.3548 0.6747
vt 0.0906 0.3390 0.5514
vt 0.0906 0.3444 0.5498
vt 0.0493 0.3090 0.3044
vt 0.0194 0.2202 0.0598
vt 0.0236 0.2613 0.1250
vt 0.0272 0.2591 0.1250
vt 0.0527 0.3059 0.3044
vt 0.3701 0.2216 0.0005
vt 0.3664 0.2207 0.0005
vt 0.3595 0.2616 0.1250
vt 0.3569 0.2607 0.1250
vt 0.3308 0.3096 0.3044
vt 0.3287 0.3082 0.3044
vt 0.3569 0.0073 0.1225
vt 0.3290 0.0073 0.3012
vt 0.2898 0.0073 0.5420
vt 0.2501 0.0073 0.6741
vt 0.2100 0.0073 0.7091
vt 0.1712 0.0073 0.7130
vt 0.1308 0.0073 0.6819
vt 0.0910 0.0073 0.5459
vt 0.0522 0.0073 0.2973
vt 0.0267 0.0073 0.1186
vt 0.1216 0.8285 0.5917
vt 0.2323 0.9256 0.8371
vt 0.2225 0.9381 0.5498
vt 0.1076 0.8400 0.3044
vt 0.3394 0.9690 0.9602
vt 0.3335 0.9819 0.6729
vt 0.4464 0.9903 0.9995
vt 0.4445 0.9995 0.7107
vt 0.5534 0.9903 0.9980
vt 0.5555 0.9995 0.7107
vt 0.6604 0.9730 0.9602
vt 0.6665 0.9820 0.6729
vt 0.7674 0.9296 0.8371
vt 0.7775 0.9381 0.5498
vt 0.8763 0.8337 0.5917
vt 0.8903 0.8415 0.3044
vt 0.2323 0.0049 0.8357
vt 0.3394 0.0049 0.9614
vt 0.4464 0.0088 0.9980
vt 0.5534 0.0088 0.9980
vt 0.6604 0.0088 0.9614
vt 0.7674 0.0096 0.8356
vt 0.9814 0.0104 0.2878
vt 0.9995 0.0090 0.0241
vt 0.9995 0.4971 0.0005
vt 0.9812 0.4933 0.2878
vt 0.9995 0.5980 0.0005
vt 0.9814 0.5931 0.2878
vt 0.9699 0.7088 0.1250
vt 0.9531 0.7027 0.4123
vt 0.0005 0.0090 0.0241
vt 0.0184 0.0066 0.2188
vt 0.0183 0.4895 0.2878
vt 0.0005 0.4971 0.0005
vt 0.0309 0.5893 0.3373
vt 0.0135 0.5980 0.0500
vt 0.0528 0.6980 0.4123
vt 0.0362 0.7079 0.1250
vt 0.8775 0.0043 0.5952
vt 0.9550 0.0043 0.4131
vt 0.1212 0.0005 0.5926
vt 0.0532 0.0005 0.4101
vt 0.0300 0.0005 0.3352
# 90 texture coords

g bridge_01_exitSign
s 2
f 1/48/1 2/49/2 10/50/3 9/51/4 
f 2/49/5 3/52/6 11/53/7 10/50/8 
f 3/52/9 4/54/10 12/55/11 11/53/12 
f 4/54/13 5/56/14 13/57/15 12/55/16 
f 5/56/17 6/58/18 14/59/19 13/57/20 
f 6/58/21 7/60/22 15/61/23 14/59/24 
f 7/60/25 8/62/26 16/63/27 15/61/28 
f 18/6/29 19/7/30 30/8/31 29/9/32 
f 31/10/33 30/8/34 19/7/35 
s 1
f 27/64/36 28/65/37 3/52/38 2/49/39 
f 28/65/40 29/66/41 4/54/42 3/52/43 
f 29/66/44 30/67/45 5/56/46 4/54/47 
f 30/67/48 31/68/49 6/58/50 5/56/51 
s 5
f 31/68/52 20/69/53 7/60/54 6/58/55 
s 4
f 8/62/56 7/60/57 20/69/58 
s 1
f 21/70/59 22/71/60 33/72/61 32/73/62 
s 3
f 32/73/63 33/72/64 39/74/65 38/75/66 
s 2
f 38/75/67 39/74/68 43/76/69 42/77/70 
f 42/77/71 43/76/72 16/63/73 8/62/74 
s 10
f 22/11/75 23/12/76 34/13/77 33/14/78 
s 4
f 24/15/79 25/16/80 36/17/81 35/18/82 
f 35/18/83 36/17/84 40/19/85 
f 45/20/86 46/21/87 14/4/88 15/5/89 
f 46/21/90 47/22/91 13/3/92 14/4/93 
f 47/22/94 48/23/95 12/2/96 13/3/97 
f 48/23/98 49/24/99 11/1/100 12/2/101 
f 49/24/102 50/25/103 10/26/104 11/1/105 
f 9/27/106 10/26/107 50/25/108 
s 3
f 25/78/109 17/79/110 26/80/111 36/81/112 
s 2
f 36/81/113 26/80/114 37/82/115 40/83/116 
f 40/83/117 37/82/118 41/84/119 44/85/120 
f 44/85/121 41/84/122 1/48/123 9/51/124 
s 5
f 8/62/125 20/69/126 54/86/127 
f 8/62/128 54/86/129 55/87/130 
f 8/62/131 55/87/132 42/77/133 
s 1
f 42/77/134 55/87/135 38/75/136 
s 3
f 38/75/137 55/87/138 32/73/139 
s 1
f 32/73/140 55/87/141 21/70/142 
f 2/49/143 1/48/144 51/88/145 
f 2/49/146 51/88/147 27/64/148 
s 5
f 1/48/149 41/84/150 52/89/151 
f 1/48/152 52/89/153 51/88/154 
s 4
f 41/84/155 53/90/156 52/89/157 
s 5
f 41/84/158 37/82/159 53/90/160 
f 37/82/161 26/80/162 53/90/163 
s 3
f 26/80/164 17/79/165 53/90/166 
s 5
f 40/19/167 61/28/168 35/18/169 
f 44/29/170 61/28/171 40/19/172 
s 1
f 44/29/173 60/30/174 61/28/175 
s 5
f 9/27/176 59/31/177 60/30/178 
f 9/27/179 60/30/180 44/29/181 
s 4
f 50/25/182 59/31/183 9/27/184 
s 8
f 39/32/185 33/14/186 57/33/187 
f 57/33/188 33/14/189 34/13/190 
f 43/34/191 39/32/192 56/35/193 
f 56/35/194 39/32/195 57/33/196 
f 16/36/197 43/34/198 56/35/199 
f 16/36/200 56/35/201 58/37/202 
s 12
f 15/5/203 58/37/204 45/20/205 
f 15/5/206 16/36/207 58/37/208 
s 4
f 34/13/209 23/12/210 62/38/211 
f 57/33/212 34/13/213 62/38/214 
f 56/35/215 57/33/216 62/38/217 
s 12
f 58/37/218 56/35/219 62/38/220 
f 58/37/221 62/38/222 63/39/223 
f 45/20/224 58/37/225 63/39/226 
s 4
f 45/20/227 63/39/228 64/40/229 
f 46/21/230 45/20/231 64/40/232 
f 46/21/233 64/40/234 65/41/235 
f 46/21/236 65/41/237 47/22/238 
f 47/22/239 65/41/240 66/42/241 
f 48/23/242 47/22/243 66/42/244 
f 66/42/245 67/43/246 48/23/247 
f 49/24/248 48/23/249 67/43/250 68/44/251 
f 49/24/252 68/44/253 69/45/254 50/25/255 
f 50/25/256 69/45/257 70/46/258 59/31/259 
s 5
f 59/31/260 70/46/261 71/47/262 60/30/263 
s 4
f 60/30/264 71/47/265 61/28/266 
s 5
f 61/28/267 71/47/268 35/18/269 
s 4
f 35/18/270 71/47/271 24/15/272 
# 32 polygons - 48 triangles

