mtllib sharpTurnSign.mtl

#
# object directionPost
#

v  -5.7599 12.2626 0.0000
v  -5.7599 9.2626 0.0000
v  5.7601 9.2626 0.0000
v  5.7601 12.2626 0.0000
v  5.7601 9.2626 -0.2998
v  -5.7599 9.2626 -0.2998
v  -5.7599 12.2626 -0.2998
v  5.7601 12.2626 -0.2998
v  3.2735 12.2550 -0.3191
v  3.9273 12.2550 -0.3191
v  3.9584 12.2550 -0.3572
v  3.2424 12.2550 -0.3572
v  3.9584 12.2550 -0.5704
v  3.2424 12.2550 -0.5704
v  3.9273 12.2550 -0.6085
v  3.2735 12.2550 -0.6085
v  3.2735 0.0000 -0.3191
v  3.9273 0.0000 -0.3191
v  3.9584 0.0000 -0.3572
v  3.9584 0.0000 -0.5704
v  3.9273 0.0000 -0.6085
v  3.2735 0.0000 -0.6085
v  3.2424 0.0000 -0.5704
v  3.2424 0.0000 -0.3572
v  -3.9912 12.2550 -0.3191
v  -3.3374 12.2550 -0.3191
v  -3.3063 12.2550 -0.3572
v  -4.0223 12.2550 -0.3572
v  -3.3063 12.2550 -0.5704
v  -4.0223 12.2550 -0.5704
v  -3.3374 12.2550 -0.6085
v  -3.9912 12.2550 -0.6085
v  -3.9912 0.0000 -0.3191
v  -3.3374 0.0000 -0.3191
v  -3.3063 0.0000 -0.3572
v  -3.3063 0.0000 -0.5704
v  -3.3374 0.0000 -0.6085
v  -3.9912 0.0000 -0.6085
v  -4.0223 0.0000 -0.5704
v  -4.0223 0.0000 -0.3572
# 40 vertices

vn 0.0000 -0.0000 1.0000
vn 0.0000 0.0000 -1.0000
vn 0.0000 -1.0000 -0.0000
vn 1.0000 0.0000 -0.0000
vn 0.0000 1.0000 0.0000
vn -1.0000 0.0000 -0.0000
vn 0.0000 0.0000 1.0000
vn 0.9972 0.0000 0.0750
vn 0.9972 -0.0000 -0.0750
vn 0.0000 -0.0000 -1.0000
vn -0.9972 -0.0000 -0.0750
vn -0.9972 0.0000 0.0750
# 12 vertex normals

vt 0.0045 0.9922 0.0000
vt 0.0041 0.8436 0.0000
vt 0.5702 0.8448 0.0000
vt 0.5702 0.9922 0.0000
vt 0.0132 0.7093 0.0000
vt 0.5567 0.7093 0.0000
vt 0.5567 0.8340 0.0000
vt 0.0132 0.8340 0.0000
vt 0.5538 0.7907 0.0000
vt 0.0513 0.7907 0.0000
vt 0.0513 0.8031 0.0000
vt 0.5538 0.8031 0.0000
vt 0.0365 0.7148 0.0000
vt 0.0239 0.7148 0.0000
vt 0.0239 0.8296 0.0000
vt 0.0365 0.8296 0.0000
vt 0.5523 0.8113 0.0000
vt 0.0520 0.8113 0.0000
vt 0.0520 0.8247 0.0000
vt 0.5523 0.8247 0.0000
vt 0.1411 0.7122 0.5000
vt 0.1911 0.7122 0.5000
vt 0.1934 0.7140 0.5000
vt 0.1388 0.7140 0.5000
vt 0.1934 0.7237 0.5000
vt 0.1388 0.7237 0.5000
vt 0.1911 0.7254 0.5000
vt 0.1411 0.7254 0.5000
vt 0.0776 0.0600 1.4653
vt 0.1234 0.0600 1.4653
vt 0.1236 0.6816 1.4653
vt 0.0777 0.6816 1.4653
vt 0.1258 0.0600 1.4974
vt 0.1259 0.6816 1.4974
vt 0.1500 0.0600 1.4974
vt 0.1500 0.6817 1.4974
vt 0.1524 0.0600 1.4653
vt 0.1524 0.6817 1.4653
vt 0.0068 0.0600 1.4653
vt 0.0513 0.0600 1.4653
vt 0.0516 0.6817 1.4653
vt 0.0068 0.6817 1.4653
vt 0.0537 0.0600 1.4974
vt 0.0540 0.6817 1.4974
vt 0.0753 0.0600 1.4974
vt 0.0754 0.6816 1.4974
# 46 texture coords

g directionPost
usemtl Material__26
s 2
f 1/1/1 2/2/1 3/3/1 4/4/1 
s 4
f 5/5/2 6/6/2 7/7/2 8/8/2 
s 8
f 3/9/3 2/10/3 6/11/3 5/12/3 
s 16
f 4/13/4 3/14/4 5/15/4 8/16/4 
s 32
f 1/17/5 4/18/5 8/19/5 7/20/5 
s 64
f 2/13/6 1/14/6 7/15/6 6/16/6 
s 4
f 9/21/5 10/22/5 11/23/5 12/24/5 
f 12/24/5 11/23/5 13/25/5 14/26/5 
f 14/26/5 13/25/5 15/27/5 16/28/5 
s 2
f 17/29/7 18/30/7 10/31/7 9/32/7 
s 1
f 18/30/8 19/33/8 11/34/8 10/31/8 
s 2
f 19/33/4 20/35/4 13/36/4 11/34/4 
s 1
f 20/35/9 21/37/9 15/38/9 13/36/9 
s 2
f 21/39/10 22/40/10 16/41/10 15/42/10 
s 1
f 22/40/11 23/43/11 14/44/11 16/41/11 
s 2
f 23/43/6 24/45/6 12/46/6 14/44/6 
s 1
f 24/45/12 17/29/12 9/32/12 12/46/12 
s 4
f 25/21/5 26/22/5 27/23/5 28/24/5 
f 28/24/5 27/23/5 29/25/5 30/26/5 
f 30/26/5 29/25/5 31/27/5 32/28/5 
s 2
f 33/29/7 34/30/7 26/31/7 25/32/7 
s 1
f 34/30/8 35/33/8 27/34/8 26/31/8 
s 2
f 35/33/4 36/35/4 29/36/4 27/34/4 
s 1
f 36/35/9 37/37/9 31/38/9 29/36/9 
s 2
f 37/39/10 38/40/10 32/41/10 31/42/10 
s 1
f 38/40/11 39/43/11 30/44/11 32/41/11 
s 2
f 39/43/6 40/45/6 28/46/6 30/44/6 
s 1
f 40/45/12 33/29/12 25/32/12 28/46/12 
# 28 polygons

#
# object directionPostSingle
#

v  -2.0762 9.2626 -0.0013
v  2.2013 9.2626 -0.0013
v  2.2013 12.2626 -0.0013
v  -2.0762 12.2626 -0.0013
v  -2.0762 9.2626 -0.3011
v  -2.0762 12.2626 -0.3011
v  2.2013 12.2626 -0.3011
v  2.2013 9.2626 -0.3011
v  0.3381 12.2550 -0.3585
v  -0.3779 12.2550 -0.3585
v  -0.3468 12.2550 -0.3204
v  0.3070 12.2550 -0.3204
v  0.3381 12.2550 -0.5717
v  -0.3779 12.2550 -0.5717
v  0.3070 12.2550 -0.6098
v  -0.3468 12.2550 -0.6098
v  -0.3468 0.0000 -0.3204
v  0.3070 0.0000 -0.3204
v  0.3381 0.0000 -0.3585
v  0.3381 0.0000 -0.5717
v  0.3070 0.0000 -0.6098
v  -0.3468 0.0000 -0.6098
v  -0.3779 0.0000 -0.5717
v  -0.3779 0.0000 -0.3585
# 24 vertices

vn 0.0000 -0.0000 1.0000
vn 0.0000 -0.0000 -1.0000
vn 0.0000 -1.0000 -0.0000
vn 1.0000 0.0000 -0.0000
vn 0.0000 1.0000 0.0000
vn -1.0000 0.0000 -0.0000
vn 0.0000 0.0000 1.0000
vn 0.9972 0.0000 0.0750
vn 0.9972 -0.0000 -0.0750
vn -0.9972 -0.0000 -0.0750
vn -0.9972 0.0000 0.0750
# 11 vertex normals

vt 0.0041 0.8436 0.0000
vt 0.2143 0.8449 0.0000
vt 0.2145 0.9922 0.0000
vt 0.0045 0.9922 0.0000
vt 0.5567 0.7093 0.0000
vt 0.5567 0.8340 0.0000
vt 0.3549 0.8340 0.0000
vt 0.3549 0.7093 0.0000
vt 0.0513 0.7907 0.0000
vt 0.0513 0.8031 0.0000
vt 0.2379 0.8031 0.0000
vt 0.2379 0.7907 0.0000
vt 0.0239 0.7148 0.0000
vt 0.0239 0.8296 0.0000
vt 0.0365 0.8296 0.0000
vt 0.0365 0.7148 0.0000
vt 0.3665 0.8113 0.0000
vt 0.3665 0.8247 0.0000
vt 0.5523 0.8247 0.0000
vt 0.5523 0.8113 0.0000
vt 0.1934 0.7140 0.5000
vt 0.1388 0.7140 0.5000
vt 0.1411 0.7122 0.5000
vt 0.1911 0.7122 0.5000
vt 0.1934 0.7237 0.5000
vt 0.1388 0.7237 0.5000
vt 0.1911 0.7254 0.5000
vt 0.1411 0.7254 0.5000
vt 0.1236 0.6816 1.4653
vt 0.0777 0.6816 1.4653
vt 0.0776 0.0600 1.4653
vt 0.1234 0.0600 1.4653
vt 0.1259 0.6816 1.4974
vt 0.1258 0.0600 1.4974
vt 0.1500 0.6817 1.4974
vt 0.1500 0.0600 1.4974
vt 0.1524 0.6817 1.4653
vt 0.1524 0.0600 1.4653
vt 0.0516 0.6817 1.4653
vt 0.0068 0.6817 1.4653
vt 0.0068 0.0600 1.4653
vt 0.0513 0.0600 1.4653
vt 0.0540 0.6817 1.4974
vt 0.0537 0.0600 1.4974
vt 0.0754 0.6816 1.4974
vt 0.0753 0.0600 1.4974
# 46 texture coords

g directionPostSingle
usemtl Material__26
s 2
f 41/47/13 42/48/13 43/49/13 44/50/13 
s 4
f 45/51/14 46/52/14 47/53/14 48/54/14 
s 8
f 41/55/15 45/56/15 48/57/15 42/58/15 
s 16
f 42/59/16 48/60/16 47/61/16 43/62/16 
s 32
f 43/63/17 47/64/17 46/65/17 44/66/17 
s 64
f 44/59/18 46/60/18 45/61/18 41/62/18 
s 4
f 49/67/17 50/68/17 51/69/17 52/70/17 
f 53/71/17 54/72/17 50/68/17 49/67/17 
f 55/73/17 56/74/17 54/72/17 53/71/17 
s 2
f 52/75/19 51/76/19 57/77/19 58/78/19 
s 1
f 49/79/20 52/75/20 58/78/20 59/80/20 
s 2
f 53/81/16 49/79/16 59/80/16 60/82/16 
s 1
f 55/83/21 53/81/21 60/82/21 61/84/21 
s 2
f 56/85/14 55/86/14 61/87/14 62/88/14 
s 1
f 54/89/22 56/85/22 62/88/22 63/90/22 
s 2
f 50/91/18 54/89/18 63/90/18 64/92/18 
s 1
f 51/76/23 50/91/23 64/92/23 57/77/23 
# 17 polygons

